<svg width="737" height="392" viewBox="0 0 737 392" fill="none" xmlns="http://www.w3.org/2000/svg">
<path d="M166.037 162.797C167.689 167.566 176.463 178.433 190.394 183.21L235.47 193.008C235.47 191.957 235.508 190.915 235.562 189.876C240.12 191.908 247.104 190.643 249.362 191.026L235.631 188.902C236.29 179.208 239.016 169.95 239.391 160.44C239.441 159.171 195.956 150.354 190.996 148.288C188.795 147.372 182.516 132.667 178.84 122.563L193.667 113.704L187.841 103.001L205.474 91.8844C208.334 89.7352 211.061 87.4143 213.639 84.9346L222.95 86.9701C222.981 86.9701 225.032 87.1426 225.281 87.1426C228.451 87.1426 229.264 84.6777 229.789 81.8947L235.041 43.9447C235.727 37.0447 237.03 34.0662 230.552 33.4031L211.949 30.3709C207.851 29.8726 206.942 35.2277 206.965 35.2316L203.63 56.3609C199.184 56.0581 192.165 58.5842 190.651 63.2111C189.006 68.2481 188.734 70.6937 188.734 76.1026L177.686 84.4056L176.92 82.9949L171.058 86.8282C165.972 66.0247 151.796 77.5746 146.694 82.2282C148.196 76.0949 150.217 68.6467 150.217 66.1282C150.217 65.7909 165.481 62.1109 165.312 53.3211C165.029 38.4324 160.371 27.5227 154.46 21.6194C159.857 17.2839 163.618 12.4194 162.633 7.5089C159.949 -5.81193 135.999 6.30141 128.696 18.6639C126.327 22.6697 125.074 33.6139 129.229 36.1286C128.876 38.6546 128.673 41.1992 128.62 43.7492C128.409 51.5807 127.853 62.1224 126.971 66.8451C118.27 61.4784 105.022 64.2729 94.4224 83.7731C97.0483 79.2766 63.9858 52.9991 41.4803 93.0804C40.8861 94.1461 36.2938 101.272 30.5821 110.104C20.7266 125.346 7.52844 145.674 5.72677 148.763C-4.90306 166.976 3.0051 176.9 16.6249 177.203L57.6761 178.119C53.6358 189.677 50.9294 198.555 50.9984 201.479L56.4073 201.545C53.7623 211.799 54.1073 221.574 55.8438 230.356C58.5501 243.922 64.6604 255.112 68.4516 262.038L68.3826 262.084H68.4784C68.9883 263.016 69.4598 263.871 69.8699 264.641L69.8968 265.09L68.3826 262.084L27.2203 381.167C24.4794 387.097 11.8639 403.592 10.2194 409.047C6.00277 407.924 3.00894 418.891 8.19544 419.945C16.1266 421.563 10.6143 417.879 12.6459 424.372C13.3474 426.619 23.5556 425.553 22.8464 425.699C19.2469 436.095 33.1964 431.683 32.9128 432.664C29.5433 444.931 45.0798 436.8 43.8531 439.368C40.6829 446 48.9093 446.625 50.6688 445.885C58.0134 442.853 52.6544 447.683 55.6176 449.189C66.0366 454.479 69.4368 446.529 69.6783 446.472C70.9701 452.777 85.6288 449.619 81.8376 439.878C85.4141 418.948 64.5454 420.635 63.3724 419.286C60.2521 415.698 56.9324 406.225 60.1601 396.42L58.4619 395.653L95.2619 315.375L93.2111 311.339H93.3223L139.157 402.703C138.732 403.209 138.483 404.083 139.924 406.191C144.114 418.143 144.275 431.131 147.729 436.091C146.579 437.176 147.602 446.824 149.136 447.154C154.744 448.381 156.085 440.193 157.642 444.984C158.504 447.637 162.928 445.161 164.158 444.118C168.08 440.817 166.317 439.165 168.421 441.001C174.098 445.954 177.82 437.007 177.878 436.984C181.554 439.031 178.687 439.94 185.223 438.747C190.973 437.697 192.598 432.664 192.928 433.101C195.404 436.359 201.15 435.221 202.795 432.334C204.991 428.447 203.646 429.751 204.581 430.119C208.414 431.625 208.798 431.41 212.455 429.294C214.229 428.271 215.203 425.35 215.303 425.315C215.824 426.753 219.592 427.083 220.861 426.764C222.305 426.415 223.589 425.586 224.5 424.413C225.412 423.239 225.898 421.791 225.879 420.305L224.668 416.138C225.683 414.988 215.429 396.431 196.765 400.805C178.334 405.129 176.486 395.458 173.416 393.388L156.818 341.519L121.758 231.905C125.557 231.863 129.35 231.575 133.112 231.042C133.135 235.642 133.158 240.162 133.158 244.459V231.042C136.716 230.569 140.196 229.628 143.508 228.244L133.158 228.493V209.94C136.731 210.035 140.357 210.093 144.072 210.093L133.158 209.794V202.472L153.015 202.71C153.038 202.71 164.316 158.454 169.862 127.929L173.535 125.737L166.037 162.797ZM203.032 60.1137L202.844 61.3097C202.046 62.4896 201.149 63.5989 200.161 64.6256C199.686 65.1047 199.118 66.0784 198.405 66.3237C198.635 66.0707 201.154 62.7932 203.032 60.1137ZM69.8968 264.683C70.1574 265.174 70.3989 265.634 70.6098 266.056L80.1931 285.192H80.0168L69.8853 265.097C69.9006 264.956 69.8968 264.821 69.8968 264.683ZM81.7801 439.997C81.2549 440.63 79.4571 440.863 77.2721 440.906C79.6986 440.649 81.3853 440.281 81.7609 439.997H81.7801ZM92.8086 310.488L80.3733 285.824H80.5496L92.9236 310.484L92.8086 310.488ZM133.108 209.786L118.162 209.372C123.069 209.579 128.022 209.786 133.089 209.92C133.043 215.916 133.066 222.229 133.089 228.478L120.75 228.773L120.343 227.508L101.644 219.182L101.115 208.905C100.92 208.874 100.836 212.707 100.855 218.829L78.4719 208.862C82.1941 208.69 85.8396 208.606 89.4353 208.586L77.0919 208.249L62.1419 201.591L133.185 202.472C133.139 204.822 133.108 207.275 133.089 209.786H133.108Z" fill="white"/>
<path d="M261.123 205.769L262.74 196.186L256.001 196.419L249.891 192.241L242.761 191.831L242.132 202.181C243.436 206.873 257.228 208.222 261.123 205.769Z" fill="white"/>
<path d="M244.149 143.213L242.615 149.821L239.204 154.958L243.037 155.491L243.102 164.833C242.236 164.61 241.013 164.334 239.138 164.005L246.728 171.422L251.992 181.032C251.355 182.182 251.317 183.697 252.087 185.303C252.34 185.828 248.752 188.132 250.171 191.21C250.803 192.575 252.049 192.874 256.304 195.112C259.85 196.987 269.077 195.706 268.678 190.098C268.594 188.887 269.153 188.04 269.828 187.131C270.138 186.827 270.403 186.48 270.614 186.1C271.534 184.873 272.038 183.383 272.051 181.849C272.054 180.297 272.313 178.755 272.818 177.287C272.937 176.979 273.03 176.661 273.094 176.337C273.201 175.953 273.309 175.547 273.416 175.064C274.221 171.495 271.833 169.003 268.218 167.397L269.751 159.198L274.317 159.83L272.427 153.505L272.669 146.958L244.149 143.213ZM254.234 179.292C253.482 179.505 252.814 179.942 252.317 180.546C252.523 180.207 252.802 179.919 253.134 179.702C253.465 179.485 253.841 179.345 254.234 179.292Z" fill="white"/>
<path d="M201.403 105.742C201.237 105.609 201.059 105.492 200.87 105.393L201.403 105.742Z" fill="white"/>
<path d="M222.153 119.335L229.475 124.127C228.593 120.527 227.865 116.87 222.153 119.335Z" fill="white"/>
<path d="M236.861 128.957L229.486 124.127C230.333 127.542 231.353 130.908 236.861 128.957Z" fill="white"/>
<path d="M89.443 208.606L101.123 208.924L118.162 209.372C108.602 208.989 99.2065 208.544 89.443 208.606Z" fill="white"/>
<path d="M34.4615 104.078C30.6281 103.262 31.1265 102.131 28.8916 105.267C25.825 109.568 20.7496 118.718 20.7496 118.718C20.9106 119.484 23.5518 119.136 24.3376 119.734L34.4615 104.078Z" fill="white"/>
<path d="M243.543 142.339L241.868 149.503L237.839 155.568L242.251 156.177L242.305 163.844C241.68 163.702 240.917 163.541 239.974 163.368C240.055 162.414 240.124 161.452 240.162 160.497C240.204 159.416 240.212 159.159 214.479 153.298C204.159 150.945 193.491 148.514 191.272 147.59C190.359 147.207 187.411 141.986 183.095 131.46C181.891 128.527 180.749 125.579 179.775 122.931L179.085 123.341L178.403 123.751L174.252 126.231L173.339 126.775L172.427 127.32L165.266 162.64L165.224 162.851L165.293 163.054C166.991 167.953 176.026 179.116 190.141 183.953L236.256 193.985V193.008C236.256 192.337 236.256 191.666 236.294 190.995C238.137 191.544 240.048 191.829 241.971 191.842L241.343 202.284L241.377 202.411C241.806 203.944 243.332 205.271 245.785 206.225C248.681 207.26 251.735 207.779 254.809 207.758C257.607 207.758 260.13 207.325 261.537 206.444L261.836 206.256L263.515 196.339C264.683 196.086 265.799 195.632 266.811 194.997C268.678 193.782 269.587 192.069 269.445 190.048C269.38 189.132 269.797 188.477 270.415 187.664C270.763 187.312 271.061 186.914 271.3 186.48C272.279 185.144 272.815 183.535 272.833 181.88C272.82 180.41 273.052 178.949 273.52 177.556L273.543 177.475C273.656 177.174 273.747 176.866 273.815 176.551C273.922 176.168 274.033 175.731 274.144 175.233C274.392 174.248 274.392 173.218 274.144 172.234C273.896 171.25 273.407 170.343 272.722 169.594C271.696 168.464 270.454 167.552 269.069 166.91L270.361 160.053L275.394 160.75L273.205 153.406L273.47 146.272L243.543 142.339ZM270.668 158.527L265.044 157.76L247.645 155.322L243.811 154.789L243.045 154.682L242.255 154.571L240.549 154.337L243.16 150.408L271.825 154.195L273.217 158.86L270.668 158.527ZM271.844 147.636L271.664 152.62L243.62 148.901L244.747 144.083L271.844 147.636ZM236.375 189.355C236.67 184.666 237.463 180.047 238.238 175.555C238.839 172.082 239.445 168.52 239.825 164.936C240.871 165.132 241.676 165.32 242.316 165.458V165.979C242.481 168.551 246.59 170.579 254.529 171.978C255.994 172.239 257.469 172.446 258.876 172.614C260.988 173.285 264.58 175.221 265.949 177.502C266.6 178.591 266.669 179.603 266.156 180.592C266.026 180.903 265.834 181.184 265.592 181.42C265.351 181.655 265.064 181.839 264.749 181.96C263.442 182.366 261.525 181.339 259.67 180.346C257.937 179.422 256.158 178.472 254.541 178.495V178.418C254.372 178.453 254.211 178.491 254.054 178.537C253.88 178.562 253.708 178.6 253.54 178.652C252.778 178.906 252.126 179.413 251.693 180.089C251.512 180.313 251.355 180.554 251.225 180.81C250.554 182.136 250.562 183.735 251.225 185.337C251.141 185.448 251.026 185.586 250.922 185.721C250.155 186.648 248.829 188.235 249.067 190.236C248.031 190.177 246.993 190.177 245.958 190.236C243.175 190.321 239.288 190.451 236.375 189.355ZM249.32 191.191C249.347 191.271 249.381 191.352 249.416 191.432H249.278L249.32 191.191ZM267.877 190.152C267.977 191.589 267.329 192.774 265.96 193.671C263.277 195.434 258.742 195.519 256.661 194.438C255.641 193.897 254.778 193.464 254.088 193.115C251.842 191.984 251.244 191.658 250.895 190.903C250.159 189.312 251.114 187.967 252.149 186.725L252.321 186.522C255.511 189.025 259.183 190.355 262.771 190.355C263.628 190.355 264.484 190.278 265.328 190.125C266.214 189.968 267.08 189.711 267.908 189.358C267.87 189.621 267.86 189.887 267.877 190.152ZM271.246 181.83C271.2 184.042 270.284 185.238 269.395 186.399L269.222 186.621C268.291 187.53 266.788 188.243 265.033 188.569C263.081 188.929 257.995 189.274 252.735 184.82C252.195 183.612 252.149 182.443 252.62 181.512C252.62 181.477 252.662 181.443 252.682 181.404H252.712C252.782 181.272 252.858 181.144 252.942 181.021C253.32 180.571 253.821 180.241 254.384 180.07C255.606 179.951 257.293 180.837 258.93 181.726C260.674 182.658 262.464 183.612 264.113 183.612C264.487 183.614 264.859 183.56 265.217 183.451C266.15 183.138 266.927 182.478 267.386 181.607V181.657C268.788 181.47 270.133 180.984 271.331 180.231C271.292 180.699 271.262 181.22 271.246 181.83ZM271.545 170.625C272.067 171.189 272.438 171.875 272.626 172.619C272.814 173.364 272.813 174.144 272.623 174.888C272.538 175.271 272.454 175.593 272.37 175.903C272.37 175.976 272.343 176.053 272.331 176.13C272.232 176.482 272.136 176.8 272.044 177.099C271.58 178.203 270.53 179.346 268.026 179.936C268.19 178.804 267.939 177.651 267.321 176.689C266.485 175.298 265.021 174.04 263.438 173.044C265.293 173.178 266.669 173.228 267.152 173.228H267.313L267.919 173.186L268.797 168.543C269.833 169.063 270.765 169.768 271.545 170.625Z" fill="#371269"/>
<path d="M226.68 420.275V420.163L225.53 416.135C225.611 415.694 225.53 414.893 224.733 413.386L224.698 413.271H224.671C224.522 412.984 224.349 412.673 224.146 412.332C223.142 410.645 213.831 395.975 196.619 400.012C182.474 403.331 178.56 398.279 175.969 394.936C175.438 394.18 174.819 393.489 174.125 392.878L122.843 232.644C126.022 232.573 129.196 232.332 132.349 231.924C132.372 236.286 132.392 240.426 132.392 244.447H133.963C133.963 240.353 133.963 236.14 133.921 231.694C136.766 231.263 139.561 230.553 142.266 229.574L134.715 253.383L136.214 253.854L152.164 203.469H153.364L153.598 203.235C153.762 203.07 153.839 202.994 156.971 190.171C158.688 183.16 161.276 172.373 163.871 160.804C166.743 148.026 168.986 137.221 170.598 128.389L169.694 128.93L168.789 129.47L136.244 148.917C122.444 156.583 111.987 160.386 104.638 160.386C101.513 160.386 98.9433 159.7 96.9295 158.328C88.7913 152.815 90.731 137.628 92.6055 122.923C93.4028 116.678 94.1388 110.783 94.1388 105.707H95.7105C95.7105 110.882 94.9438 116.824 94.1503 123.122C92.3372 137.348 90.4588 152.056 97.7958 157.024C104.037 161.241 116.349 158.155 135.443 147.552L168.49 127.807L169.149 127.423L169.211 127.389L170.054 126.887L170.955 126.346L172.837 125.223L173.749 124.675L174.662 124.13L177.843 122.233L178.53 121.823L179.216 121.409L192.575 113.428L187.12 103.407L187.549 104.101L187.994 103.821L188.661 103.4L188.845 103.285L205.861 92.5514L205.919 92.5131C208.689 90.4283 211.336 88.1846 213.846 85.7933L222.866 87.7674H222.927L223.41 87.8058C224.499 87.8939 225.082 87.9361 225.25 87.9361C229.421 87.9361 230.145 84.1028 230.533 82.0481L235.792 44.0444C235.876 43.1781 235.976 42.3731 236.064 41.6256C236.447 38.4439 236.716 36.1478 235.47 34.5876C234.6 33.5028 233.105 32.9009 230.625 32.6479L212.014 29.6119C208.154 29.1443 206.494 32.9891 206.16 35.0859C206.159 35.1076 206.159 35.1294 206.16 35.1511L202.936 55.5713C198.129 55.5329 191.436 58.2546 189.876 62.9888C188.232 68.0258 187.933 70.5519 187.917 75.7308L177.951 83.2211L177.778 83.3514L177.142 83.8268L176.678 84.1756L176.644 84.1104L171.944 87.1771L171.258 87.6294L170.568 88.0779L163.016 93.0153L162.303 93.4829L129.72 114.804C129.614 114.92 129.469 114.993 129.313 115.011L125.013 116.004L128.436 113.765V113.784L129.08 113.432C131.621 112.025 133.2 110.955 134.266 109.943L170.188 86.4526L170.867 86.0079L171.541 85.5671C169.943 79.7558 167.463 76.1103 164.116 74.6919C158.55 72.3306 152.072 76.6393 148.07 79.9743C148.166 79.5909 148.258 79.2268 148.354 78.8511C149.622 73.7949 150.826 68.9994 150.995 66.6227L151.577 66.4158C155.212 65.1278 166.263 61.2101 166.11 53.2904C165.834 38.7774 161.448 27.8716 155.652 21.6616C160.877 17.3223 164.423 12.4156 163.411 7.35559C162.702 3.82126 160.525 1.65159 157.113 1.07276C148.749 -0.341739 133.799 8.49026 128.025 18.2614C125.53 22.4781 124.273 33.2344 128.39 36.4966C128.072 38.8934 127.883 41.3054 127.822 43.7224C127.565 53.1371 127.006 61.3136 126.381 65.5916C124.715 64.7096 122.913 64.116 121.049 63.8359C111.611 62.4061 102.265 68.8461 94.8595 81.4386C94.8135 81.3466 94.7598 81.2546 94.7062 81.1588C92.5212 77.3753 83.5895 70.3603 71.871 70.3603H71.6832C63.2766 70.4139 51.0943 74.3278 40.7942 92.6779C40.361 93.4446 37.7275 97.5463 34.1012 103.185C33.4533 103.024 32.9512 102.863 32.5372 102.729C30.4327 102.039 29.9573 102.411 28.2515 104.807C25.1848 109.096 20.2705 117.959 20.0635 118.334L19.9217 118.587L19.9792 118.875C20.1823 119.86 21.3362 119.979 22.4517 120.094C22.6318 120.113 22.8772 120.136 23.1148 120.171C14.7007 133.173 6.46283 145.919 5.0445 148.346C-1.63317 159.788 -0.467839 166.772 1.68266 170.617C4.24716 175.217 9.54867 177.812 16.6058 177.97L56.5798 178.863C52.7043 190.029 50.1398 198.558 50.2088 201.479V202.246L55.38 202.307C49.1968 228.029 61.2948 250.638 67.5393 262.038L26.4728 380.872C25.2845 383.425 22.2293 387.986 18.9978 392.816C14.256 399.897 10.829 405.133 9.6675 408.192C8.96002 408.179 8.26691 408.392 7.6895 408.801C5.53517 410.266 4.17433 414.168 4.77616 417.177C5.1595 419.117 6.3095 420.374 8.01917 420.719C9.12949 420.965 10.2574 421.122 11.3925 421.191C11.2928 421.957 11.3925 423.038 11.8755 424.614C12.393 426.266 15.3562 426.845 21.7578 426.531C21.202 428.681 21.4013 430.364 22.3443 431.583C24.2802 434.044 28.6157 433.634 31.207 433.388L31.92 433.327C31.3412 435.938 31.6133 437.808 32.7365 439.027C34.7145 441.174 38.7165 440.415 41.3615 439.917C41.856 439.825 42.4195 439.717 42.8488 439.66C41.7717 442.343 42.5575 444.03 43.4507 444.973C45.4248 447.062 49.4843 447.234 50.9487 446.633C52.9727 445.797 53.7125 445.693 53.9847 445.709C53.9769 445.936 53.9538 446.163 53.9157 446.387C53.7777 447.38 53.5323 449.048 55.242 449.91C57.726 451.171 60.0413 451.796 62.142 451.796C63.5678 451.812 64.9767 451.487 66.2516 450.848C67.5264 450.209 68.6303 449.275 69.4713 448.124C70.1762 449.212 71.2753 449.986 72.538 450.282C74.1231 450.659 75.7794 450.612 77.3409 450.148C78.9024 449.683 80.3143 448.816 81.4352 447.633C83.2981 445.563 83.7122 442.795 82.6197 439.821C83.555 434.147 82.7922 429.544 80.3503 426.14C76.54 420.823 69.6477 419.726 65.9408 419.14C65.2496 419.054 64.5655 418.918 63.8938 418.734C60.8003 415.115 57.8372 405.942 60.8847 396.684L61.1032 396.021L59.4817 395.254L95.331 317.089L138.264 402.649C137.655 403.906 138.483 405.428 139.238 406.54C141.155 412.06 142.224 417.81 143.163 422.893C144.191 428.447 145.08 433.273 146.836 436.114C146.069 438.13 146.709 443.294 147.311 445.437C147.752 446.97 148.266 447.737 148.986 447.913C149.41 448.007 149.844 448.055 150.278 448.055C152.846 448.055 154.529 446.284 155.591 445.164C155.872 444.847 156.178 444.554 156.507 444.287C156.686 444.576 156.823 444.89 156.913 445.218C157.025 445.604 157.233 445.955 157.518 446.237C157.803 446.52 158.156 446.724 158.543 446.832C160.77 447.464 164.005 445.299 164.676 444.708C165.866 443.776 166.842 442.599 167.54 441.258L167.923 441.58C169.514 442.972 171.143 443.497 172.761 443.175C175.36 442.642 177.199 439.993 178.212 438.084C178.639 438.374 179.025 438.72 179.361 439.112C180.427 440.262 180.991 440.308 185.365 439.495C189.807 438.682 191.965 435.662 192.928 434.236C193.59 434.823 194.367 435.266 195.21 435.538C196.052 435.81 196.942 435.904 197.823 435.815C200.272 435.65 202.492 434.416 203.477 432.675C203.925 431.878 204.244 431.292 204.443 430.866C208.338 432.399 209.02 432.139 212.849 429.927C214.137 429.183 215.008 427.692 215.533 426.646C217.131 427.673 220.068 427.73 221.064 427.481C222.678 427.093 224.112 426.169 225.133 424.86C226.153 423.551 226.698 421.934 226.68 420.275ZM177.901 85.2413L178.537 84.7659L178.71 84.6356L189.508 76.5396V76.1563C189.508 70.8969 189.765 68.4666 191.387 63.5063C192.644 59.6729 198.509 57.2311 202.706 57.1698C202.979 57.1698 203.239 57.1698 203.496 57.1889C203.673 57.1889 203.845 57.2043 204.014 57.2349C203.841 57.5339 203.6 57.9096 203.316 58.3313C203.032 58.7529 202.664 59.2934 202.285 59.8301C200.533 62.3103 198.225 65.3463 197.819 65.8369L196.036 67.9951L198.685 67.0789C199.395 66.8336 199.92 66.1819 200.341 65.6606C200.487 65.4804 200.625 65.3079 200.725 65.1929C201.001 64.9208 201.284 64.6026 201.572 64.2653C201.859 63.9279 202.227 63.4718 202.565 63.0271C202.902 62.5824 203.239 62.1148 203.584 61.6164C205.459 58.9331 207.452 55.5061 209.284 52.3666C211.324 48.8821 213.858 44.5428 214.651 44.1748C215.621 43.8413 216.894 43.5653 217.457 44.1748C218.139 44.8954 218.021 46.8849 217.2 49.4724C216.51 50.2736 215.586 52.0753 214.18 54.8391C212.504 58.1511 210.212 62.6859 208.932 63.4028L209.698 64.7751C211.274 63.8934 213.129 60.3936 215.579 55.5483C216.085 54.5478 216.598 53.5319 217.062 52.6656L217.499 52.8726L217.856 52.2171C221.195 46.0646 223.222 44.8878 224.326 44.9874C224.507 44.979 224.687 45.0193 224.847 45.1043C225.007 45.1893 225.141 45.3158 225.235 45.4704C226.293 47.3871 223.123 53.6776 221.785 56.3686C221.271 57.3921 220.892 58.1434 220.738 58.5843C218.879 62.2834 215.13 69.4096 214.364 70.0843C214.431 70.0374 214.506 70.0035 214.586 69.9846L214.942 71.5179C215.326 71.4298 215.682 71.3416 217.856 67.4393L217.254 69.2869L222.164 59.2474C223.671 56.1808 224.495 55.7399 224.66 55.6824C225.07 56.0658 225.553 58.6418 224.48 64.2614C223.234 70.7781 220.646 76.8923 213.363 84.1104C213.145 84.3289 212.922 84.5474 212.692 84.7659L212.002 85.4214C209.771 87.4887 207.438 89.4424 205.01 91.2749L188.105 101.92L188.067 101.943L186.472 99.3556L179.089 87.4416L177.79 85.3371L177.901 85.2413ZM215.943 39.2413C215.698 39.7281 215.123 40.4794 214.613 40.5829C212.451 41.0238 213.432 38.5436 213.697 37.7769C214.655 35.0208 217.273 36.5771 215.943 39.2528V39.2413ZM216.058 425.005L215.79 424.269L215.054 424.533C214.716 424.652 214.613 424.894 214.433 425.3C214.114 426.009 213.283 427.895 212.079 428.581C208.525 430.632 208.364 430.728 204.953 429.383C204.912 429.227 204.824 429.087 204.701 428.982C204.579 428.877 204.427 428.813 204.267 428.796C204.078 428.779 203.889 428.829 203.733 428.937C203.576 429.045 203.463 429.204 203.412 429.386C203.037 430.257 202.607 431.102 202.124 431.916C201.403 433.189 199.64 434.132 197.731 434.262C195.971 434.381 194.457 433.779 193.572 432.61C193.491 432.502 193.385 432.416 193.264 432.358C193.142 432.299 193.009 432.272 192.874 432.277C192.372 432.277 192.107 432.66 191.724 433.254C190.846 434.55 189.021 437.245 185.104 437.962C181.186 438.678 181.041 438.59 180.546 438.05C179.904 437.33 179.138 436.732 178.284 436.283L177.928 436.087L177.544 436.263C177.345 436.365 177.191 436.539 177.115 436.75C175.781 439.518 174.075 441.3 172.435 441.634C171.323 441.864 170.135 441.446 168.946 440.396C168.145 439.698 167.739 439.349 167.164 439.46C166.589 439.572 166.397 439.993 166.202 440.415C165.596 441.623 164.727 442.68 163.66 443.508C162.709 444.306 160.187 445.67 158.961 445.318C158.82 445.283 158.693 445.21 158.592 445.106C158.492 445.002 158.423 444.872 158.393 444.731C158.102 443.834 157.688 442.895 156.841 442.7C155.993 442.504 155.242 443.232 154.437 444.08C153.253 445.329 151.777 446.874 149.381 446.38C148.564 445.586 147.821 440.001 148.043 437.601C148.059 437.309 148.117 437.021 148.216 436.746H148.266L149.14 436.497L223.606 415.222L223.801 415.893L224.043 416.721L224.277 417.534L225.108 420.397C225.096 421.684 224.655 422.929 223.854 423.936C223.054 424.943 221.939 425.654 220.689 425.956C219.37 426.301 216.334 425.779 216.058 425.016V425.005ZM164.308 395.021C164.25 386.392 164.243 375.934 164.308 367.467L172.419 392.809L164.308 395.021ZM162.74 395.446L159.735 396.266C155.572 394.848 149.864 395.212 145.061 395.523C143.428 395.626 141.875 395.726 140.515 395.749C139.215 390.988 139.276 381.543 139.399 371.423C141.829 371.584 144.332 371.806 146.816 372.009C151.639 372.423 156.626 372.849 160.762 372.849V371.277C156.691 371.277 151.945 370.871 146.962 370.445C144.444 370.23 141.898 370.012 139.43 369.851C139.552 359.57 139.66 349.009 138.376 342.289C141.442 342.397 144.509 342.477 147.783 342.477C150.466 342.477 153.268 342.423 156.277 342.297L162.817 362.729C162.667 371.906 162.667 385.069 162.736 395.458L162.74 395.446ZM72.4153 296.331C71.9477 291.444 71.5835 287.576 71.4877 286.139C74.0598 286.288 76.9463 286.441 80.0322 286.595L92.0152 310.476C85.1152 310.139 78.9397 309.809 73.642 309.495C73.251 305.206 72.837 300.774 72.4153 296.331ZM70.7708 239.721C70.8092 236.623 70.8437 233.463 70.8743 230.241C78.219 230.31 86.1655 230.889 93.9625 231.456L100.222 231.905C100.341 238.471 100.518 245.567 100.74 252.363C100.782 253.632 100.828 254.974 100.878 256.373C89.5005 255.763 77.6325 256.518 70.6405 259.823C70.6098 253.091 70.6865 246.49 70.7708 239.721ZM70.9203 221.026C70.9203 219.247 71.0353 217.518 71.1503 215.847C71.319 213.355 71.457 211.289 71.1503 209.782C72.3883 209.886 73.6316 209.909 74.8725 209.851C83.6892 209.303 91.9845 209.292 100.215 209.495C100.088 210.867 100.004 214.183 100.077 222.62C100.1 225.047 100.134 227.634 100.176 230.325L94.043 229.888C86.2192 229.317 78.2497 228.738 70.8552 228.665C70.8986 226.166 70.9203 223.619 70.9203 221.026ZM101.02 209.69L101.047 209.514H101.618C101.536 209.584 101.44 209.635 101.337 209.666C101.234 209.696 101.126 209.705 101.02 209.69ZM102.438 285.939C95.0933 285.675 87.626 285.364 81.0327 285.05L71.3113 265.722C71.1235 265.339 70.928 264.936 70.6827 264.507C70.6827 263.533 70.6597 262.564 70.652 261.598C77.207 258.148 89.3395 257.381 100.935 258.002C101.261 266.707 101.748 277.253 102.423 285.939H102.438ZM70.7363 268.068L79.2118 284.962C76.3867 284.824 73.7532 284.682 71.388 284.548C71.0507 278.813 70.8475 273.362 70.7363 268.068ZM81.853 286.679C88.2892 286.986 95.4882 287.285 102.553 287.538C103.128 294.465 103.837 299.985 104.692 302.058C105.225 303.346 105.459 307.076 105.62 311.109L101.786 310.936C99.0314 310.814 96.3698 310.686 93.8015 310.553L81.853 286.679ZM133.526 294.173C133.71 299.54 133.933 305.873 134.216 312.217C127.082 311.987 117.641 311.63 107.195 311.178C107.038 306.877 106.773 302.978 106.145 301.457C105.436 299.735 104.753 294.94 104.136 287.591C115.199 287.975 125.81 288.235 132.576 288.235H133.316C133.381 290.033 133.453 292.057 133.526 294.173ZM105.673 312.707C105.712 313.995 105.742 315.287 105.773 316.514C105.938 323.138 106.041 325.016 106.463 325.637L107.766 324.752L107.797 324.809C107.536 324.181 107.437 320.087 107.345 316.476C107.314 315.26 107.283 314.011 107.249 312.776C117.304 313.217 126.918 313.581 134.289 313.811C134.776 324.326 135.439 334.684 136.455 340.645L132.43 340.476C127.293 340.254 121.977 340.024 115.97 340.024V341.595C121.946 341.595 127.24 341.825 132.361 342.044L136.75 342.228C138.077 348.745 137.969 359.39 137.846 369.755C132.361 369.445 127.347 369.475 123.886 370.483L94.6372 312.182C98.3018 312.374 102.009 312.546 105.673 312.707ZM138.061 340.718C137.042 334.914 136.359 324.487 135.865 313.861C140.342 313.992 143.853 314.068 145.939 314.068C146.46 314.068 146.889 314.068 147.223 314.068L155.767 340.767C149.182 341.02 143.57 340.921 138.061 340.718ZM135.792 312.267C135.504 305.892 135.286 299.525 135.098 294.12C135.018 291.82 134.948 289.857 134.887 288.224C136.666 288.205 138.042 288.155 138.912 288.078L146.728 312.508C145.042 312.52 141.178 312.435 135.792 312.267ZM138.422 286.545C137.594 286.606 136.374 286.641 134.826 286.656C134.673 282.773 134.569 281.117 134.443 280.68L132.944 281.151C133.04 281.535 133.151 283.651 133.27 286.664C126.611 286.664 115.56 286.395 104.021 285.993C103.454 278.786 102.948 269.356 102.53 258.079C110.963 258.631 118.929 259.896 124.104 261.364L124.533 259.853C119.14 258.32 111.013 257.021 102.469 256.465C102.43 255.388 102.392 254.299 102.357 253.191C102.101 245.559 101.924 238.325 101.813 232.008C107.724 232.391 113.589 232.706 119.151 232.706C119.841 232.706 120.52 232.706 121.198 232.706L138.422 286.545ZM122.322 231.1L121.099 227.266L119.604 227.772L120.685 231.146C114.674 231.211 108.253 230.885 101.771 230.452C101.587 219.37 101.614 211.4 101.771 209.556C106.754 209.694 111.738 209.909 116.798 210.127C121.858 210.346 127.002 210.564 132.284 210.71C132.242 217.081 132.284 223.793 132.307 230.375C128.996 230.805 125.664 231.047 122.325 231.1H122.322ZM142.857 227.65C139.976 228.825 136.966 229.654 133.891 230.118C133.856 223.625 133.825 217.012 133.868 210.737C137.218 210.817 140.622 210.871 144.091 210.871V209.299C140.641 209.299 137.229 209.246 133.879 209.161C133.879 207.149 133.921 205.175 133.956 203.25L150.52 203.45L142.857 227.65ZM16.6403 176.406C10.162 176.264 5.33583 173.937 3.055 169.854C0.256667 164.871 1.41434 157.695 6.4015 149.154C7.80834 146.747 16.0998 133.925 24.537 120.88L25.1657 119.91L26.1202 118.438C27.7838 115.862 29.4322 113.32 30.9962 110.898C31.414 110.898 31.8433 110.917 32.2995 110.917C35.6115 110.917 39.9432 110.656 44.4857 110.38C49.1738 110.1 54.023 109.809 57.8563 109.809H60.003C65.6687 109.809 75.9957 109.782 82.6197 110.192L83.44 110.246L83.9996 110.288C81.0825 118.097 77.8663 126.618 74.677 134.887C73.9103 136.892 73.1437 138.881 72.377 140.84C68.1603 151.773 64.1698 161.824 61.3293 168.639L61.061 168.701L60.5627 168.823L60.1985 168.908L60.0337 169.237V169.272C57.174 175.022 56.7677 176.689 56.8597 177.322L16.6403 176.406ZM35.738 103.572C39.2263 98.1596 41.7295 94.2496 42.1627 93.4753C52.0948 75.7844 63.706 72.0086 71.6793 71.9588H71.8863C82.8343 71.9588 91.398 78.5751 93.353 81.9714C93.8322 82.7994 93.8245 83.2479 93.7363 83.3859L93.6673 83.5316C93.6627 83.5513 93.6563 83.5705 93.6482 83.5891C93.0962 85.2298 92.3793 87.2883 91.5283 89.6803C89.7152 94.7556 87.2848 101.403 84.5363 108.736L84.0073 108.694L83.187 108.632C76.609 108.191 66.213 108.211 59.9762 108.222H57.8563C53.977 108.222 49.1048 108.513 44.3937 108.797C39.6825 109.081 35.2972 109.349 32.0197 109.322L35.0863 104.546L35.7303 103.549L35.738 103.572ZM82.7845 166.309C77.6977 169.724 69.7013 174.067 59.7845 176.064L59.198 176.179L58.8147 176.252L58.5808 176.302C59.3731 174.239 60.2687 172.218 61.2642 170.245H61.3217L61.5057 170.203L62.4602 169.966C74.2285 166.941 84.061 160.796 90.386 152.509C91.0615 154.345 91.8292 156.147 92.686 157.906C91.8197 159.041 88.316 162.606 82.7845 166.309ZM156.848 2.62526C159.601 3.09293 161.291 4.7911 161.87 7.66993C162.748 12.0514 159.413 16.4866 154.521 20.5461L153.881 21.0636C153.678 21.2284 153.467 21.3933 153.257 21.5543C146.403 26.8558 137.156 31.3676 131.866 33.9551L130.253 34.7486L129.398 35.1703L129.302 35.2201C129.074 35.0247 128.869 34.8035 128.693 34.5608C126.247 31.2181 127.385 22.4436 129.379 19.0664C134.412 10.5488 147.242 2.49493 155.192 2.49493C155.747 2.49222 156.301 2.53581 156.848 2.62526ZM128.551 60.1253C128.934 55.6403 129.233 49.6833 129.394 43.7876C129.454 41.4051 129.642 39.0275 129.957 36.6653C130.686 36.2819 131.56 35.8718 132.557 35.3849C138.356 32.5521 147.533 28.0709 154.407 22.7004C155.569 23.9451 156.615 25.2937 157.531 26.7293C160.597 31.4788 164.285 39.9504 164.538 53.3556C164.668 60.1406 154.422 63.7746 151.052 64.9668C149.784 65.4191 149.442 65.5379 149.442 66.1474C149.442 68.0948 148.112 73.3886 146.828 78.5023C146.544 79.6523 146.261 80.7563 145.996 81.8296C145.713 82.0903 145.452 82.3318 145.23 82.5388C144.904 82.8416 144.566 83.1559 144.463 83.2211C144.106 83.4664 142.581 83.2518 141.293 83.0294C141.251 82.8596 141.201 82.692 141.143 82.5273C141.04 82.2589 140.898 81.8871 137.061 79.7903L136.405 79.4338L136.386 79.4644C135.159 73.8831 132.051 69.2409 127.815 66.4656C128.064 65.0281 128.309 63.0041 128.551 60.1099V60.1253ZM132.48 100.226C133.718 96.0091 135.048 91.4973 135.93 87.7598C135.995 87.4991 136.052 87.2423 136.11 86.9931C136.167 86.7439 136.233 86.4488 136.29 86.1843C136.463 85.3793 136.608 84.6241 136.719 83.9379C136.766 83.6658 136.804 83.4051 136.835 83.1521C136.865 82.8991 136.9 82.6193 136.923 82.3854C136.946 82.1516 136.965 81.8104 136.969 81.5536C137.352 81.7759 137.758 82.0021 138.119 82.2206L138.736 82.6039C139.074 82.8027 139.401 83.019 139.717 83.2518C139.75 83.3591 139.781 83.4741 139.809 83.5968C139.87 83.8684 139.914 84.1437 139.94 84.4209C140.021 85.5281 140.003 86.6404 139.886 87.7444C139.859 88.0089 139.832 88.2773 139.801 88.5533C139.771 88.8293 139.74 89.0708 139.706 89.3199C139.134 93.6248 137.789 98.8496 136.562 101.84C136.102 102.947 135.796 103.864 135.489 104.672C134.542 107.317 134.124 108.506 131.13 110.422C130.644 110.741 130.092 111.078 129.455 111.446C129.827 109.238 131.276 104.316 132.48 100.21V100.226ZM22.6088 118.522C22.3827 118.499 22.0683 118.465 21.8077 118.423C23.0343 116.245 27.0018 109.261 29.5318 105.711C30.1145 104.891 30.6818 104.143 30.9732 103.99C31.1188 103.921 31.3833 103.99 32.0503 104.216C32.3608 104.316 32.7403 104.439 33.2003 104.569L24.0348 118.752C23.5668 118.636 23.0898 118.559 22.6088 118.522ZM57.0092 202.311L132.388 203.239C132.35 205.156 132.327 207.122 132.311 209.127C127.048 208.977 121.915 208.744 116.882 208.544C102.86 207.942 89.6155 207.371 74.7958 208.287C73.3726 208.35 71.9467 208.309 70.5293 208.165C70.3732 207.95 70.1829 207.762 69.9658 207.609C69.1148 207.015 67.938 207.053 66.3855 207.709L65.7913 207.636C63.261 207.266 60.7114 207.042 58.1553 206.965V208.537C60.6473 208.614 63.1329 208.834 65.5997 209.196C66.9068 209.357 68.2332 209.518 69.5212 209.648C69.9045 210.909 69.7435 213.359 69.5825 215.747C69.4713 217.369 69.3487 219.197 69.3487 221.033C69.3487 223.625 69.3372 226.17 69.3142 228.669C65.0228 228.63 60.734 228.895 56.4802 229.463C54.9047 221.129 54.6363 211.937 57.0092 202.323V202.311ZM56.7907 230.988C60.9385 230.443 65.1193 230.186 69.3027 230.222C69.2771 233.442 69.2426 236.598 69.1992 239.69C69.111 246.743 69.0305 253.617 69.0727 260.651C68.9538 260.724 68.835 260.796 68.72 260.873C65.0323 254.142 59.4587 243.635 56.7907 231V230.988ZM68.5782 263.886L69.111 264.875C69.1992 271.139 69.4062 277.586 69.8125 284.425C66.2437 284.207 63.4147 284.003 61.682 283.823L68.5782 263.886ZM61.1568 285.353C62.9317 285.552 65.9907 285.778 69.9045 286.02V286.154C69.9927 287.568 70.3453 291.298 70.836 296.454C71.1772 300.05 71.6027 304.55 72.0435 309.372C62.487 308.786 56.0048 308.261 53.3752 307.839L61.1568 285.353ZM52.8653 309.342C55.6368 309.817 62.8742 310.384 72.2007 310.956C73.0977 320.922 74.0062 331.943 74.3013 339.131C66.443 338.05 55.702 336.965 48.5452 336.854C48.0008 332.859 47.261 329.858 46.2797 328.393L52.8653 309.342ZM45.582 330.425C46.157 331.863 46.6247 334.078 46.9965 336.854C45.7595 336.847 44.5232 336.911 43.2935 337.045L45.582 330.425ZM42.7108 338.728C44.1916 338.485 45.6919 338.381 47.192 338.418C48.0238 345.701 48.2922 356.139 48.2078 366.401C42.1013 365.926 35.6498 365.393 33.6412 364.998L42.7108 338.728ZM33.1275 366.462C34.7068 366.846 38.4942 367.202 48.1925 367.957C48.0967 375.911 47.79 383.651 47.3683 389.619L28.2017 380.734L33.1275 366.462ZM72.9942 448.741C72.0128 448.476 70.7823 447.836 70.468 446.311L70.307 445.521L69.5212 445.705C69.1838 445.782 69.0382 446.008 68.8388 446.318C66.052 450.669 61.728 451.397 55.9895 448.484C55.3608 448.162 55.3608 447.66 55.5103 446.567C55.6177 445.801 55.7365 444.946 55.0542 444.413C54.7503 444.195 54.3815 444.085 54.0077 444.103C53.241 444.103 52.091 444.436 50.389 445.138C49.5495 445.486 46.1455 445.452 44.639 443.853C43.7343 442.899 43.719 441.492 44.5892 439.671C44.6977 439.485 44.7494 439.271 44.7379 439.056C44.7263 438.841 44.6519 438.633 44.524 438.46C44.0065 437.785 42.9907 437.981 41.1162 438.333C38.8162 438.767 35.324 439.426 33.9402 437.923C33.1007 437.019 33.0202 435.305 33.6987 432.836C33.7361 432.701 33.7404 432.558 33.711 432.421C33.6816 432.283 33.6195 432.155 33.53 432.047C33.1467 431.594 32.5908 431.663 31.1073 431.786C28.9837 431.985 25.0315 432.357 23.6285 430.571C22.9308 429.685 22.8618 428.271 23.479 426.354L23.7818 426.289L23.6898 425.565C23.594 424.832 22.9577 424.867 22.2868 424.905C13.9148 425.377 13.4395 424.173 13.4242 424.139C12.6383 421.632 13.1175 420.976 13.1098 420.976L13.681 420.593L13.0792 419.37L12.4275 419.577C12.4275 419.577 11.5688 419.83 8.37949 419.194C7.30616 418.975 6.62767 418.197 6.36317 416.894C5.88784 414.525 6.98417 411.236 8.61717 410.128C8.82151 409.986 9.05022 409.883 9.29183 409.825C9.55146 409.766 9.82196 409.773 10.0777 409.848C10.2914 409.91 10.4944 410.004 10.6795 410.128C10.9248 410.285 11.1817 410.442 11.4462 410.599C13.2248 411.661 15.4022 412.692 17.6907 413.773C21.2097 415.437 25.2002 417.323 28.8073 419.815C31.0728 421.382 33.5722 423.295 36.2172 425.319C39.9125 428.148 43.972 431.253 48.158 433.971C52.6928 436.911 57.381 439.391 61.9312 440.572C63.6816 441.045 65.4849 441.293 67.2978 441.312C67.7808 441.312 68.7315 441.373 69.8355 441.442C73.0172 441.649 75.5855 441.76 77.5558 441.714C79.3 441.672 80.5918 441.504 81.4505 441.162C82.0178 443.278 81.6345 445.145 80.3235 446.606C78.5717 448.488 75.4283 449.427 72.975 448.76L72.9942 448.741ZM58.0863 394.603L48.8863 390.344C49.3348 384.318 49.676 376.345 49.7795 368.111L50.9602 368.203C58.5003 368.781 66.2628 369.379 69.3947 369.905L58.0863 394.603ZM70.0847 368.421C67.1062 367.858 59.313 367.271 51.0943 366.627L49.8102 366.527C49.9022 356.365 49.63 345.969 48.7522 338.448C55.7787 338.582 66.5388 339.64 74.3665 340.748C74.4623 343.93 74.401 346.115 74.1135 346.767L75.5472 347.414C75.896 346.648 76.0033 344.348 75.9305 340.967C78.5295 341.35 80.7107 341.733 82.1827 342.059L70.0847 368.421ZM82.842 340.583C81.3508 340.238 78.886 339.817 75.8768 339.38C75.6353 332.629 74.815 322.398 73.7953 311.078C79.599 311.427 86.1272 311.776 92.8432 312.109L94.4378 315.287L82.842 340.583ZM124.625 371.925C127.88 371.051 132.633 371.039 137.85 371.338C137.72 382.026 137.655 391.988 139.203 396.795L139.97 396.554V397.321C141.503 397.321 143.305 397.206 145.207 397.083C148.883 396.849 153.118 396.577 156.63 397.114L139.614 401.744L124.625 371.925Z" fill="#371269"/>
<path d="M255.166 140.514C255.863 134.415 254.088 129.466 250.301 126.936C248.781 125.939 247.014 125.382 245.197 125.328C243.379 125.273 241.582 125.722 240.005 126.626C236.624 128.508 234.174 129.141 232.721 128.508C231.211 127.849 230.709 125.825 230.176 123.647C229.601 121.317 229.007 118.906 226.948 118.043C225.154 117.296 222.678 117.92 219.148 120.013C217.906 120.753 216.978 121.014 216.391 120.78C215.602 120.477 215.184 119.155 214.739 117.752C213.927 115.176 212.823 111.649 208.165 112.642C206.398 113.025 205.187 112.975 204.562 112.515C203.937 112.055 203.795 110.928 203.672 109.667C203.515 107.927 203.32 105.765 201.227 104.684L200.506 106.079C201.74 106.719 201.936 107.915 202.108 109.809C202.243 111.312 202.384 112.876 203.642 113.78C204.673 114.547 206.218 114.666 208.506 114.164C211.596 113.504 212.34 115.272 213.252 118.212C213.789 119.906 214.341 121.662 215.843 122.233C216.928 122.647 218.239 122.363 219.964 121.34C222.943 119.569 225.097 118.94 226.35 119.469C227.681 120.025 228.156 121.953 228.65 123.996C229.225 126.319 229.873 128.953 232.1 129.923C234.078 130.785 236.835 130.164 240.771 127.975C242.096 127.212 243.607 126.831 245.135 126.874C246.664 126.917 248.15 127.381 249.431 128.217C252.712 130.409 254.234 134.818 253.605 140.311L255.166 140.514Z" fill="#371269"/>
<path d="M261.518 139.74L263.089 139.705C262.963 134.147 260.789 126.112 255.07 121.754C251.72 119.201 247.626 118.434 243.233 119.542L243.129 119.576C237.299 121.945 236.229 119.96 234.608 116.958C232.944 113.872 230.87 110.035 222.947 111.036L223.142 112.596C230.004 111.73 231.637 114.769 233.224 117.706C234.872 120.772 236.574 123.916 243.67 121.052C247.614 120.075 251.133 120.73 254.119 123.007C259.057 126.764 261.391 134.12 261.518 139.74Z" fill="#371269"/>
<path d="M420.235 28.5096L418.806 29.0718C419.884 28.983 420.619 28.8182 420.235 28.5096Z" fill="white"/>
<path d="M725.007 360.819C718.092 363.181 702.53 360.717 686.747 361.241C687.048 361.01 687.368 360.804 687.703 360.624C701.228 353.439 698.578 347.801 691.667 351.326C686.684 353.862 684.507 358.752 683.903 360.464C683.975 360.18 684.068 359.792 684.182 359.28C688.48 339.292 669.646 341.105 679.955 357.932C680.775 359.272 681.109 360.802 681.646 361.465C674.38 361.567 673.125 358.684 664.667 362.936C663.822 361.482 662.731 359.293 661.569 357.078L667.334 354.031C667.867 352.911 662.998 342.965 655.479 328.89C655.479 328.89 648.923 316.912 639.84 300.783H667.482V290.085H633.796C620.127 265.993 603.326 237.218 593.858 224.031C589.179 217.509 579.145 214.851 561.82 214.88C548.02 214.91 519.249 215.054 490.389 215.265C483.204 198.358 475.114 178.113 474.67 177.001L475.883 177.487V177.432C476.581 177.855 478.288 178.78 485.605 181.168C562.306 206.233 531.548 147.059 494.269 124.003C480.004 115.182 450.511 89.6019 430.345 90.2528V87.6111C430.341 87.023 430.103 86.4605 429.685 86.047C429.267 85.6335 428.702 85.4026 428.113 85.4048L416.651 85.464C416.63 83.8917 416.393 82.3954 416.342 80.8992C416.27 78.7859 416.169 76.3006 418.358 74.331C423.384 69.8084 426.389 65.0915 425.544 56.6212C424.783 49.0808 420.438 38.3916 418.502 29.1986L418.827 29.0718L418.481 29.0972C418.447 28.945 418.409 28.7886 418.379 28.6407C413.916 6.42532 373.999 9.33327 379.109 35.826C379.215 36.3628 379.608 39.0594 380.196 42.6563C379.861 42.91 379.579 43.2272 379.366 43.5898C379.154 43.9524 379.015 44.3533 378.957 44.7696L380.449 44.1821C381.197 48.6624 382.199 54.1444 383.294 58.6035C384.165 62.1582 386.502 65.9833 387.436 67.1963C390.953 71.7611 391.177 80.5103 391.464 85.5992L378.826 85.6626C378.238 85.6671 377.676 85.9045 377.262 86.3228C376.849 86.741 376.618 87.3061 376.62 87.8943V88.1268C364.485 85.7091 351.949 95.3121 339.387 105.993C331.065 113.068 319.754 121.044 314.978 125.389C295.476 143.141 272.052 169.384 291.732 184.638C300.916 191.76 313.968 194.973 327.544 196.414C348.568 196.651 378.213 197.04 378.213 197.04L383.957 221.901C383.957 221.901 379.033 276.877 432.767 290.085H285.886V300.787H524.329C529.025 330.704 529.579 363.672 529.579 394.197C529.579 394.281 532.047 394.099 535.83 393.774C535.758 395.676 535.699 397.806 535.703 399.645C533.167 399.784 530.952 399.928 530.965 400.042C531.388 404.18 529.93 437.867 532.326 438.306C536.13 439.004 553.84 440.255 555.37 437.419C555.678 436.848 556.773 429.084 558.963 427.444C559.647 426.928 560.442 427.021 561.355 428.116C562.133 429.054 562.995 433.648 563.95 436.007C566.719 442.867 612.937 438.382 620.985 438.348C623.06 438.348 629.924 429.971 617.134 425.63C608.258 422.613 602.041 420.499 597.417 418.652L588.575 415.651C584.861 414.387 581.633 411.999 579.338 408.819C577.042 405.638 575.793 401.822 575.764 397.899L574.918 300.766H576.588L629.332 369.285C631.146 371.398 632.194 372.611 632.194 372.611L636.792 370.181C638.585 372.531 640.554 375.354 642.008 377.366C640.964 378.047 640.25 378.541 640.318 378.596C643.027 381.804 661.028 410.148 663.222 409.43C666.721 408.288 681.819 401.335 681.468 398.313C681.35 397.354 673.818 382.51 686.367 391.445C692.529 395.832 728.858 373.161 735.396 369.5C737.066 368.592 737.129 356.677 725.007 360.819ZM371.104 159.317H371.007H370.884H370.736H370.635C370.255 159.287 369.79 159.257 369.236 159.228H368.741C367.093 159.16 364.908 159.118 362.528 159.093H362.313H360.711H359.958H357.63H355.749H354.616H352.862H350.279H348.069H347.371C346.805 159.093 346.344 159.093 346.019 159.067C345.63 159.067 345.423 159.038 345.448 159.016L345.558 158.923C347.312 158.957 348.885 159 350.182 159.067L345.706 158.805C349.743 155.538 368.107 143.915 368.146 141.349L371.717 159.621C371.538 159.475 371.329 159.371 371.104 159.317ZM519.68 274.172C520.073 277.921 520.948 282.625 522.153 288.602C522.254 289.092 522.347 289.591 522.444 290.085H466.001C483.593 287.101 502.279 280.706 519.68 274.172Z" fill="white"/>
<path d="M634.463 196.511L635.309 183.527C638.048 184.723 641.125 185.911 644.607 187.098C653.771 190.222 669.545 193.929 671.32 194.546C680.234 197.652 667.601 181.274 664.511 174.076C659.316 161.967 640.055 138.441 638.331 121.2C636.754 105.46 617.73 102.688 614.848 116.94C611.889 119.446 608.212 123.601 610.655 123.601C611.5 123.601 613.013 123.652 614.64 123.601C614.64 123.66 614.64 123.715 614.64 123.77C617.827 151.666 607.172 166.523 626.67 179.017C627.092 185.661 628.102 196.389 628.102 196.389L626.805 179.102C629.507 180.782 632.333 182.254 635.258 183.506C634.907 187.754 634.776 191.245 634.514 195.831L634.463 196.511Z" fill="white"/>
<path d="M470.714 290.085C469.136 290.398 467.568 290.687 466.01 290.952C464.037 291.284 462.075 291.566 460.122 291.797H521.882C521.827 291.506 521.768 291.218 521.713 290.952C521.658 290.686 521.599 290.373 521.54 290.085H470.714Z" fill="#371269"/>
<path d="M645.926 373.896C647.342 373.004 648.678 372.163 649.016 371.922C655.44 367.345 660.005 364.416 663.505 362.581L664.274 362.184C664.54 362.049 664.798 361.926 665.052 361.803C664.562 360.903 663.995 359.813 663.412 358.688L662.765 357.446L662 357.868L661.231 358.291L638.111 370.523L637.333 370.946L636.56 371.368C637.828 373.029 639.096 374.868 640.229 376.44L640.791 377.231C640.998 377.091 641.213 376.931 641.514 376.753L642.245 376.28C643.141 375.646 644.337 374.877 645.926 373.896Z" fill="#371269"/>
<path d="M535.847 392.903L536.692 392.831L544.922 392.121C551.088 391.58 558.024 390.976 563.701 390.532L564.546 390.469L565.425 390.401C569.28 390.109 572.357 389.919 573.878 389.915C575.396 385.35 574.829 342.817 574.449 314.452C574.386 309.583 574.322 304.98 574.271 300.787C574.271 300.496 574.271 300.204 574.271 299.921C574.271 299.638 574.271 299.342 574.271 299.076V298.653C574.271 297.717 574.262 296.807 574.242 295.922C574.208 294.574 574.149 293.209 574.06 291.839L573.997 290.994C573.997 290.707 573.954 290.415 573.929 290.128C572.987 278.838 569.986 267.6 563.785 263.5C560.881 261.585 557.445 261.467 553.548 263.145L553.447 263.187H553.337C550.125 263.677 541.198 266.873 537.381 268.343L533.763 269.734C529.498 271.382 525.09 273.082 520.589 274.776C521.011 278.348 521.831 282.807 522.981 288.458C523.095 289.008 523.201 289.561 523.306 290.115C523.366 290.402 523.42 290.69 523.48 290.981L523.644 291.827C524.101 294.215 524.519 296.628 524.912 299.063L525.052 299.908L525.191 300.775C529.934 331.038 530.416 364.061 530.424 393.309C531.333 393.258 532.96 393.132 534.985 392.963L535.847 392.903Z" fill="#371269"/>
<path d="M660.428 356.723L661.197 356.3L661.958 355.899L666.51 353.49C666.265 352.544 665.935 351.621 665.525 350.734C665.314 350.239 665.065 349.664 664.764 349.001C662.317 343.608 656.607 332.297 643.449 308.607C642.029 306.045 640.567 303.425 639.079 300.77L638.593 299.904L638.107 299.059C636.766 296.669 635.406 294.257 634.028 291.823L633.538 290.977L633.048 290.111C622.823 272.067 611.94 253.309 603.275 238.862C602.827 238.11 602.384 237.362 601.948 236.618C599.674 232.763 597.505 229.09 594.513 225.929C594.023 225.409 593.503 224.902 592.962 224.411C587.252 219.234 578.591 215.772 562.107 215.772H561.879C548.003 215.802 520.005 215.941 491.754 216.144H490.812H489.869C476.289 216.241 462.721 216.36 450.709 216.486L450.76 215.641L450.785 215.218H450.409L450.27 214.796C449.424 212.294 448.456 209.584 447.459 206.731C443.655 195.86 439.331 183.54 436.892 174.655C436.36 172.724 434.322 166.941 432.137 160.855L474.032 177.664C475.266 180.754 482.485 198.76 489.108 214.407H490.051H490.993C485.03 200.387 478.508 184.186 476.28 178.628C477.43 179.199 479.797 180.184 485.376 182.01C518.83 192.944 529.6 187.162 532.744 180.386C535.758 173.899 532.876 163.522 524.841 151.911C517.275 140.943 506.011 130.237 494.743 123.263C491.463 121.239 487.418 118.352 482.735 115.008C472.95 108.022 460.777 99.3317 449.204 94.0906C442.29 90.9544 436.322 89.3779 431.224 89.3483V87.6069C431.219 86.7919 430.891 86.012 430.313 85.4373C429.735 84.8626 428.954 84.5394 428.139 84.5383L417.517 84.5933C417.483 84.0016 417.433 83.4267 417.382 82.8646C417.318 82.1756 417.259 81.5247 417.238 80.8696V80.8273C417.166 78.7816 417.09 76.6641 418.967 74.9734C424.102 70.3579 427.331 65.455 426.427 56.5325C426.004 52.1283 424.377 46.8111 422.678 41.177C421.541 37.4026 420.37 33.514 419.55 29.8706C419.305 29.9002 419.018 29.9298 418.705 29.9552C418.443 29.9552 418.151 29.989 417.826 30.0017C417.027 30.0313 416.029 30.0439 414.782 30.0397H412.855C408.54 30.0397 399.554 29.9848 397.178 30.4624C396.904 30.5173 396.591 30.5596 396.227 30.6061C393.079 31.0288 390.31 31.8022 390.707 36.6164C390.94 39.2961 390.606 40.9318 389.625 41.9251C388.391 43.1931 386.498 43.0283 384.304 42.8634C383.945 42.8381 383.577 42.8085 383.197 42.7873C382.513 42.7228 381.824 42.8258 381.189 43.0874C380.889 43.2272 380.623 43.4289 380.407 43.6792C380.114 44.0349 379.921 44.4624 379.849 44.9176L379.735 44.8965C380.475 49.2795 381.426 54.5163 382.491 58.8064C383.399 62.5005 385.779 66.4144 386.793 67.7205C389.904 71.7611 390.31 79.4537 390.597 84.5426C390.597 84.6102 390.597 84.6694 390.597 84.7328L378.873 84.792C378.195 84.7993 377.538 85.0292 377.004 85.4461C376.469 85.8631 376.086 86.444 375.914 87.0997C363.902 85.2907 351.513 94.5894 338.884 105.329C334.717 108.871 329.721 112.701 325.312 116.078C320.777 119.556 316.859 122.557 314.454 124.747C293.076 144.126 282.948 159.317 283.409 171.202C283.629 176.752 286.237 181.502 291.165 185.323C298.203 190.788 307.501 193.975 317.561 195.839C308.347 196.777 299.276 199.808 293.591 206.655C286.347 215.354 285.561 241.593 284.293 285.064C284.073 292.643 283.84 300.475 283.557 308.902V430.631H285.29V350.751H362.355V430.597H364.088V308.869C364.088 307.06 364.088 304.279 364.024 300.77H523.437C523.395 300.479 523.344 300.191 523.298 299.904C523.251 299.617 523.209 299.325 523.163 299.059H363.999C363.969 296.865 363.927 294.439 363.872 291.823H435.214C434.263 291.67 433.321 291.501 432.391 291.307C431.85 291.193 431.317 291.079 430.789 290.956C429.642 290.688 428.515 290.4 427.408 290.09H363.834C363.593 279.1 363.141 265.173 362.334 251.627C359.941 211.41 356.311 203.971 353.639 202.555C352.676 200.763 348.669 199.284 345.457 198.354C350.689 198.472 355.757 198.464 360.453 198.455C367.537 198.455 373.699 198.43 378.53 198.827L382.313 218.088L382.736 217.936C382.866 217.893 382.999 217.858 383.133 217.831C383.328 217.784 383.602 217.725 383.979 217.653L380.322 198.971L369.316 142.647C369.278 142.308 369.092 141.379 368.293 137.418L367.368 132.689V132.845C366.683 129.434 366.011 125.985 366.007 125.457H364.274C364.274 126.302 365.204 130.951 366.514 137.372C366.793 138.728 367.072 140.111 367.279 141.146C366.827 142.837 357.101 149.549 351.864 153.175C349.028 155.141 346.539 156.861 345.258 157.884L341.454 157.825C333.089 157.715 322.679 157.575 318.74 156.21L318.169 157.85C322.375 159.304 332.941 159.448 341.416 159.562C342.654 159.562 343.838 159.591 344.954 159.612C345.275 159.769 345.947 159.777 347.659 159.794C349.037 159.794 350.947 159.815 353.098 159.824C359.05 159.824 368.737 159.874 370.956 160.158L378.167 197.035C373.344 196.672 367.321 196.684 360.415 196.697C352.426 196.697 343.356 196.723 334.252 196.105C332.312 195.869 330.27 195.683 328.17 195.59C314.526 194.191 301.339 191.038 292.201 183.95C287.695 180.458 285.311 176.143 285.113 171.126C284.69 159.946 294.901 144.773 315.507 126.027C317.857 123.889 321.749 120.909 326.255 117.456C330.68 114.074 335.693 110.224 339.89 106.652C347.05 100.566 355.351 93.8032 363.297 90.5909C367.727 88.8157 371.84 88.2325 375.703 88.8453L375.834 113.385C375.839 114.2 376.167 114.98 376.745 115.555C377.323 116.13 378.104 116.453 378.919 116.454L399.824 116.344L399.681 116.285L399.993 115.478L400.302 114.666C400.796 114.856 401.278 115.089 401.756 115.304L402.086 115.465L402.682 115.778C403.007 115.951 403.332 116.128 403.654 116.314L404.875 117.02C407.787 118.711 410.792 120.486 414.867 120.486V122.219C410.328 122.219 406.967 120.254 404 118.521C403.328 118.128 402.673 117.747 402.022 117.392C401.764 117.253 401.506 117.118 401.244 116.97C400.982 116.822 400.725 116.716 400.463 116.598C400.361 116.769 400.275 116.948 400.205 117.134C399.507 119.011 400.344 121.471 402.741 124.633C403.121 124.78 403.586 124.966 404.148 125.199L404.283 125.254L405.23 125.638C409.144 127.223 415.48 129.595 421.634 129.595H422.538V131.328H421.634C416.012 131.328 410.34 129.485 406.304 127.946C405.678 127.705 405.095 127.473 404.554 127.253L403.489 126.83L403.294 126.75C403.501 127.435 404.169 128.276 405.437 129.544C405.475 129.641 405.534 129.819 405.581 129.967C406.3 132.139 408.485 138.745 420.032 141.839C423.202 142.685 437.311 146.962 439.787 148.243L430.971 157.816C430.091 155.377 429.221 152.981 428.435 150.855C428.642 150.432 428.375 149.916 427.974 149.587C426.926 146.696 426.08 144.367 426.004 144.092L425.159 144.303L424.314 144.384C424.314 144.565 424.314 144.599 426.359 150.178C426.068 150.867 426.423 151.523 426.782 151.506H426.833C427.678 153.784 428.642 156.493 429.639 159.262L429.259 159.684L429.876 159.934C432.209 166.413 434.559 173.036 435.113 175.057C437.568 184 441.897 196.351 445.713 207.251C446.643 209.893 447.526 212.416 448.338 214.758C448.435 215.049 448.537 215.337 448.634 215.603C448.731 215.869 448.832 216.178 448.93 216.448C430.37 216.647 415.78 216.871 411.071 217.095C393.129 217.94 386.464 218.883 384.219 219.301L383.797 219.386C383.797 220.189 383.797 221.013 383.835 221.854C383.886 223.824 383.991 225.895 384.16 228.038C385.986 250.862 395.526 281.856 432.649 289.557C433.494 289.739 434.386 289.895 435.269 290.039C438.748 290.585 442.263 290.874 445.785 290.905H447.86C451.897 290.843 455.927 290.554 459.932 290.039C478.922 287.647 499.599 280.685 518.644 273.555L519.49 273.242L520.335 272.929C524.68 271.289 528.94 269.645 533.066 268.056L536.68 266.661C539.731 265.486 549.186 262.033 552.889 261.429C554.698 260.622 556.652 260.191 558.633 260.161C560.811 260.148 562.941 260.798 564.74 262.025C569.542 265.195 572.555 272.135 574.25 280.132C574.563 281.624 574.834 283.149 575.062 284.696C575.324 286.484 575.527 288.293 575.679 290.102C575.679 290.39 575.725 290.681 575.747 290.969L575.81 291.814C575.899 293.196 575.958 294.57 575.992 295.927C576.011 296.809 576.021 297.684 576.021 298.551V298.606C576.026 298.749 576.045 298.89 576.076 299.029C576.142 299.317 576.231 299.6 576.343 299.874C576.444 300.136 576.571 300.428 576.719 300.741C578.367 304.198 582.818 310.572 588.803 318.438C589.365 319.178 589.944 319.934 590.536 320.699C597.079 329.199 605.156 339.165 613.313 348.971C613.795 349.55 614.273 350.129 614.754 350.704C620.849 358.008 626.936 365.168 632.409 371.499L635.491 369.868L636.268 369.445L637.046 369.023L660.428 356.723ZM467.354 172.309V172.419C467.23 172.592 467.145 172.79 467.104 172.998L440.7 162.385C441.546 161.781 442.843 160.403 445.493 157.499C447.015 155.808 448.735 153.94 449.34 153.526C453.642 150.567 458.19 144.498 461.846 139.624C464.023 136.721 466.073 133.969 467.383 132.887C474.649 136.488 484.383 141.028 486.729 141.425C486.729 141.882 486.995 142.228 487.261 142.215C491.023 142.055 487.574 138.678 487.008 140.453L486.965 139.726C485.021 139.62 463.761 129.493 460.232 127.194L459.619 126.797L457.506 129.075L457.273 128.732C457.053 128.398 456.736 128.31 456.297 128.221C451.166 127.033 446.136 122.122 441.326 113.639C441.072 113.191 440.434 111.504 439.758 109.725C438.278 105.828 436.436 100.976 435.108 99.2683C434.263 98.144 433.376 97.5776 432.45 97.4846C432.035 97.4539 431.62 97.528 431.241 97.7002L431.203 91.1277C442.429 91.1869 456.601 99.2345 469.188 107.679C469.125 107.766 469.078 107.864 469.049 107.967V108.085C468.491 108.871 468.892 109.729 469.315 109.708C470.448 109.662 470.921 109.319 471.006 108.918C474.776 111.483 478.377 114.057 481.686 116.416C486.395 119.797 490.461 122.68 493.792 124.738C504.882 131.594 515.952 142.114 523.404 152.879C531.092 163.966 533.932 173.725 531.185 179.638C527.157 188.316 511.083 188.565 485.926 180.344C478.119 177.808 476.809 176.963 476.251 176.604C475.831 176.317 475.345 176.141 474.839 176.092H474.742L468.934 173.755C470.312 172.905 467.81 170.788 467.354 172.309ZM362.355 308.886V349.018H285.294V308.915C285.387 306.147 285.476 303.446 285.561 300.787H362.291C362.334 304.291 362.355 307.077 362.355 308.886ZM362.266 299.054H285.945V291.818H362.139C362.194 294.435 362.237 296.861 362.266 299.054ZM341.978 199.208C349.244 200.898 352 202.784 352.143 203.38L352.249 203.844L352.705 204.001C354.265 204.542 358.158 210.273 360.618 251.711C361.425 265.237 361.886 279.126 362.118 290.085H285.886C285.934 288.395 285.982 286.732 286.03 285.098C287.255 243.482 288.063 215.988 294.906 207.75C302.357 198.798 316.132 196.761 328.017 197.323C330.035 197.531 332.057 197.703 334.083 197.838C336.731 198.155 339.361 198.612 341.961 199.208H341.978ZM353.141 158.095H351.095C350.25 158.036 349.218 157.994 348.086 157.96C349.354 157.034 351.044 155.876 352.87 154.612C360.88 149.067 365.609 145.639 367.714 143.424L370.643 158.408C368.593 158.213 363.999 158.129 353.124 158.095H353.141ZM378.978 114.746C378.62 114.747 378.276 114.607 378.021 114.355C377.766 114.103 377.621 113.761 377.617 113.402L377.491 89.2342V88.317V87.8943C377.491 87.7401 377.518 87.5871 377.571 87.4421C377.663 87.1786 377.834 86.9499 378.061 86.7872C378.288 86.6246 378.56 86.5359 378.839 86.5333L390.674 86.4742H391.54H392.411L415.805 86.3516H417.534L428.151 86.2966C428.508 86.2977 428.85 86.4394 429.104 86.691C429.357 86.9426 429.501 87.2838 429.504 87.6407V89.4286V91.2123L429.542 98.2285L429.352 98.2835L429.546 99.0823L429.597 108.804C429.421 109.265 429.182 109.701 428.887 110.097C428.088 111.154 426.943 111.69 425.383 111.745C421.689 111.876 414.47 109.746 408.671 108.034C405.074 106.978 401.963 106.061 399.909 105.701C397.2 105.232 395.948 106.547 395.682 107.815C395.259 110.042 397.276 112.887 401.418 114.641L378.978 114.746ZM459.94 129.045C461.06 129.679 463.169 130.778 465.735 132.063C464.344 133.424 462.582 135.774 460.473 138.589C456.893 143.361 452.442 149.299 448.372 152.114C447.653 152.609 446.326 154.042 444.225 156.341C442.594 158.133 440.13 160.838 439.513 161.117C439.592 161.088 439.678 161.078 439.762 161.088L439.69 161.984L432.344 159.025L459.94 129.045ZM395.936 28.8943C396.265 28.8478 396.553 28.8098 396.781 28.7675C399.317 28.2476 408.1 28.2814 412.813 28.3026H414.736C415.848 28.3026 416.714 28.3025 417.399 28.273C417.737 28.273 418.029 28.2518 418.282 28.2392C418.65 28.218 418.933 28.1927 419.153 28.1673C416.566 16.227 404.068 11.2606 393.37 13.374C384.71 15.0646 375.551 22.0302 378.251 35.9866C378.298 36.2149 378.408 36.9292 378.56 37.9224C378.733 39.0341 378.983 40.5557 379.257 42.314C379.49 42.0832 379.752 41.8829 380.035 41.718C380.296 41.5665 380.57 41.4405 380.855 41.3418C381.628 41.0934 382.442 40.9959 383.252 41.0544L384.384 41.1347C386.223 41.2742 387.673 41.3841 388.34 40.7121C388.911 40.1372 389.11 38.81 388.928 36.7728C388.319 29.9045 393.653 29.1944 395.936 28.8943Z" fill="#371269"/>
<path d="M422.467 93.1861C422.668 93.3825 422.912 93.5294 423.18 93.6152C423.447 93.701 423.731 93.7234 424.009 93.6806C424.472 93.6365 424.903 93.4248 425.22 93.0855C425.538 92.7461 425.72 92.3024 425.734 91.8378C425.734 91.8166 425.734 91.7997 425.734 91.7828C425.713 91.5017 425.61 91.2328 425.438 91.0094C425.19 90.6912 424.836 90.4723 424.44 90.3923C424.038 90.3141 423.622 90.3581 423.246 90.5186C422.869 90.679 422.549 90.9486 422.327 91.2925C422.14 91.5824 422.049 91.9243 422.069 92.2689C422.069 92.3196 422.09 92.3619 422.099 92.4126C422.141 92.7013 422.269 92.9707 422.467 93.1861Z" fill="#371269"/>
<path d="M725.286 361.639C720.996 363.105 713.629 362.784 705.091 362.416C699.495 362.171 693.256 361.909 687.043 362.104L687.085 362.07C687.407 361.813 687.749 361.584 688.108 361.385L688.463 361.195C689.013 360.895 689.541 360.599 690.04 360.307C697.314 356.051 698.916 352.513 697.973 350.687C697.081 348.997 694.452 348.929 691.27 350.561C689.035 351.731 687.104 353.405 685.627 355.451C686.109 349.145 683.996 345.599 681.73 344.415C681.026 344.005 680.203 343.847 679.397 343.968C678.591 344.089 677.85 344.48 677.296 345.079C675.479 347.027 675.035 351.545 679.237 358.393C679.589 358.999 679.887 359.636 680.128 360.295C680.171 360.392 680.209 360.485 680.247 360.582C680.373 360.895 680.504 361.195 680.644 361.465C680.808 361.802 681.042 362.1 681.329 362.34C679.518 362.33 677.712 362.158 675.931 361.829C673.818 361.487 672.047 361.203 669.325 361.985C668.788 362.142 668.213 362.336 667.592 362.581C667.072 362.788 666.518 363.029 665.927 363.308C665.673 363.427 665.411 363.553 665.141 363.689L664.371 364.082C660.99 365.853 656.48 368.731 650.026 373.334C649.641 373.604 648.407 374.382 646.848 375.363C645.812 376.014 644.43 376.884 643.259 377.632C643.001 377.797 642.756 377.954 642.528 378.106L641.801 378.583L641.522 378.774C642.621 380.244 644.612 383.186 647.017 386.749C651.945 394.028 661.045 407.46 663.124 408.58C664.059 408.259 665.66 407.591 667.584 406.72C668.147 406.467 668.725 406.196 669.317 405.909C670.635 405.279 672.017 404.582 673.37 403.846C679.321 400.625 680.593 398.905 680.593 398.478C680.547 398.322 680.365 397.865 680.2 397.46C678.708 393.753 677.271 389.678 679.122 388.22C680.483 387.147 682.867 387.933 686.857 390.756C687.99 391.563 691.988 391.872 706.067 384.906C715.15 380.414 724.973 374.619 730.844 371.157C732.624 370.109 734.035 369.276 734.919 368.778C735.341 368.304 735.709 365.396 734.331 363.181C732.78 360.688 729.648 360.151 725.286 361.639ZM678.564 346.262C678.86 345.942 679.258 345.736 679.69 345.68C680.122 345.623 680.56 345.72 680.927 345.954C682.673 346.866 685.154 350.662 683.332 359.098C683.226 359.585 683.142 359.944 683.074 360.214C683.032 360.333 682.998 360.447 682.969 360.552C682.918 360.722 682.883 360.896 682.863 361.072L682.597 360.734C682.514 360.8 682.427 360.859 682.335 360.912C682.26 360.811 682.197 360.704 682.144 360.59C682.009 360.316 681.861 359.948 681.722 359.648C681.442 358.898 681.098 358.174 680.695 357.484C677.254 351.85 677.14 347.788 678.564 346.262ZM683.446 362.264C683.543 362.197 683.624 362.133 683.679 362.087L683.573 361.956H683.734C684.156 361.956 684.372 361.799 684.554 361.334C684.637 361.121 684.705 360.902 684.757 360.679C684.782 360.612 684.811 360.536 684.837 360.459C685.513 358.71 687.563 354.407 692.06 352.108C694.478 350.869 696.156 350.954 696.435 351.495C696.883 352.34 695.209 355.662 687.297 359.859C687.004 360.017 686.721 360.193 686.451 360.388L686.029 360.7C685.912 360.797 685.789 360.886 685.661 360.967C685.738 360.939 685.821 360.929 685.903 360.937C685.985 360.945 686.064 360.971 686.134 361.013L685.386 361.296L684.583 361.601C684.658 361.813 684.765 362.012 684.9 362.192C684.414 362.197 683.928 362.235 683.446 362.264Z" fill="#371269"/>
<path d="M616.838 426.442C602.949 421.729 595.565 419.18 590.536 416.484C589.923 416.158 589.348 415.829 588.803 415.495C585.886 413.715 583.731 411.754 581.258 409.003L581.393 408.939L582.087 408.622L582.907 408.238C584.961 407.274 586.933 406.143 588.803 404.856V413.415C589.348 413.779 589.923 414.134 590.536 414.485V403.495C592.814 401.521 593.79 399.662 593.148 398.204C592.805 397.422 591.964 396.821 590.536 396.788V350.717H612.514L611.073 348.984H590.536V323.582C589.936 322.813 589.358 322.066 588.803 321.342V396.999C587.985 397.189 587.187 397.455 586.419 397.794C583.953 398.893 581.74 400.489 579.918 402.481C581.47 396.141 580.151 392.337 578.105 390.824C577.407 390.282 576.536 390.012 575.654 390.063C575.327 390.083 575.006 390.15 574.698 390.262C574.351 390.386 574.022 390.558 573.722 390.773L573.599 390.862C573.297 391.094 573.025 391.362 572.788 391.661C571.816 392.869 571.131 394.801 571.178 397.439C571.178 397.73 571.178 398.026 571.22 398.335C571.262 398.643 571.275 398.956 571.317 399.281C569.931 398.787 568.291 398.694 565.882 398.778L565.036 398.812L564.191 398.859L563.32 398.909C562.28 398.973 560.666 399.045 558.793 399.129C553.912 399.353 547.229 399.658 542.952 400.106C542.453 400.16 540.885 400.241 538.899 400.342L536.595 400.461L535.75 400.507L534.904 400.558C533.7 400.625 532.601 400.697 531.946 400.761C532.022 402.574 531.979 406.162 531.946 410.533C531.844 419.257 531.654 435.348 532.791 437.486C536.772 438.023 540.782 438.305 544.799 438.332C553.345 438.395 554.55 437.22 554.681 437.038C554.74 436.861 554.863 436.282 554.973 435.77C555.763 432.11 556.756 428.09 558.531 426.763C558.919 426.462 559.393 426.294 559.884 426.286C560.514 426.286 561.291 426.586 562.111 427.575C562.644 428.217 563.054 429.654 563.684 431.937C564.06 433.306 564.449 434.718 564.842 435.698C565.303 436.831 568.27 438.763 583.016 438.949C592.78 439.075 604.048 438.408 612.282 437.922C616.289 437.685 619.467 437.499 621.082 437.499C621.631 437.469 623.58 435.749 623.884 433.471C624.155 430.546 621.762 428.133 616.838 426.442ZM591.563 398.914C591.702 399.235 591.474 399.996 590.536 401.065V398.529C591.136 398.571 591.478 398.736 591.563 398.926V398.914ZM587.104 399.391C587.652 399.15 588.217 398.95 588.794 398.791V402.692C586.597 404.371 584.213 405.789 581.689 406.919C581.423 407.046 581.153 407.168 580.869 407.295L580.675 407.384C580.451 407.485 580.252 407.591 580.066 407.692C579.724 407.299 579.369 406.889 579.01 406.462C579.166 406.226 579.331 405.981 579.517 405.723C579.703 405.465 579.863 405.258 580.054 405.017C581.898 402.583 584.321 400.649 587.104 399.391ZM573.046 399.138C572.995 398.778 572.961 398.432 572.936 398.094C572.729 395.16 573.473 393.144 574.652 392.244C574.988 391.958 575.413 391.799 575.853 391.794C576.294 391.788 576.723 391.937 577.065 392.214C578.354 393.182 579.758 396.395 578.075 402.675C577.987 403.001 577.894 403.331 577.792 403.669C577.691 404.007 577.594 404.307 577.48 404.641C575.738 402.608 574.487 401.234 573.253 400.334C573.173 399.928 573.101 399.527 573.046 399.142V399.138Z" fill="#371269"/>
<path d="M636.019 184.761C638.508 185.818 641.268 186.874 644.324 187.906C650.635 190.057 660.195 192.517 665.91 193.988C668.48 194.647 670.508 195.171 671.033 195.353C671.709 195.608 672.423 195.751 673.146 195.776C673.47 195.797 673.794 195.744 674.094 195.62C674.393 195.496 674.661 195.305 674.875 195.061C676.422 193.172 673.886 188.683 669.625 181.511C667.867 178.552 666.201 175.75 665.327 173.708C663.543 169.554 660.255 164.241 656.4 158.07C649.24 146.582 640.339 132.287 639.21 121.069C638.601 114.996 635.309 110.08 630.406 107.882C626.365 106.082 621.995 106.441 618.711 108.85C616.352 110.579 614.788 113.195 614.061 116.458C611.593 118.572 608.795 121.615 608.989 123.187C609.07 123.783 609.547 124.417 610.638 124.417H611.483H612.836C613.178 124.417 613.516 124.417 613.854 124.417C614.801 133.192 614.383 140.626 614.011 147.203C613.22 161.075 612.671 170.834 625.845 179.444C626.2 184.939 626.919 192.842 627.168 195.505C616.5 195.877 605.414 198.684 598.85 206.592C596.314 209.648 594.559 214.876 593.313 222.256C593.848 222.71 594.362 223.176 594.855 223.655C596.056 216.047 597.734 210.641 600.185 207.699C610.929 194.791 634.81 196.262 647.224 199.161C654.489 200.852 657.245 202.737 657.368 203.333L657.473 203.798L657.926 203.954C659.485 204.495 663.378 210.227 665.842 251.665C666.645 265.19 667.11 279.079 667.343 290.039H635.034L635.524 290.905L636.015 291.751H666.633V298.987H640.089L640.575 299.832L641.061 300.699H667.529C667.575 304.207 667.592 306.988 667.592 308.797V348.929H666.628C666.916 349.588 667.152 350.163 667.351 350.662H667.592V351.288C668.471 353.633 668.277 354.043 668.146 354.318L668.023 354.576L667.6 354.804V360.628C668.222 360.404 668.792 360.206 669.333 360.083V308.886C669.333 301.159 669.021 275.799 667.584 251.606C665.191 211.389 661.561 203.95 658.889 202.534C657.621 200.138 650.859 198.308 647.866 197.585C643.762 196.632 639.588 196.005 635.385 195.712C635.457 194.444 635.52 193.282 635.579 192.149C635.706 189.605 635.829 187.289 636.019 184.761ZM611.504 122.731H610.781C611.069 121.957 612.295 120.524 613.668 119.172C613.981 118.863 614.302 118.559 614.623 118.263C614.945 117.967 615.308 117.65 615.638 117.375C616.164 116.912 616.73 116.497 617.329 116.133C617.599 116.386 617.87 116.627 618.136 116.864C619.222 117.836 620.165 118.673 620.672 119.924C620.963 120.634 620.816 120.985 620.672 121.192C620 122.181 617.646 122.557 615.388 122.688L614.518 122.731L613.672 122.752C612.823 122.747 612.054 122.739 611.508 122.731H611.504ZM628.901 195.514C628.686 193.181 628.035 186.059 627.633 180.619C629.794 181.88 632.023 183.019 634.311 184.03C634.091 186.815 633.96 189.296 633.817 192.061C633.753 193.189 633.694 194.36 633.622 195.611C632.109 195.526 630.507 195.493 628.905 195.514H628.901Z" fill="#371269"/>
<path d="M331.416 135.685C331.364 135.903 331.324 136.123 331.297 136.345C331.297 138.103 334.007 137.57 333.499 135.947C333.149 134.823 331.707 135.098 331.416 135.685Z" fill="#371269"/>
<path d="M362.765 115.27C362.712 115.488 362.673 115.708 362.646 115.93C362.646 117.688 365.352 117.155 364.849 115.532C364.498 114.408 363.056 114.683 362.765 115.27Z" fill="#371269"/>
<path d="M472.802 124.962C472.746 125.179 472.705 125.399 472.679 125.621C472.679 127.38 475.389 126.847 474.881 125.228C474.531 124.1 473.094 124.375 472.802 124.962Z" fill="#371269"/>
<path d="M441.909 173.958C441.857 174.177 441.818 174.398 441.791 174.621C441.791 176.375 444.496 175.843 443.993 174.224C443.651 173.1 442.209 173.374 441.909 173.958Z" fill="#371269"/>
<path d="M469.894 197.302C469.838 197.52 469.797 197.741 469.771 197.965C469.771 199.723 472.481 199.187 471.973 197.568C471.623 196.444 470.181 196.718 469.894 197.302Z" fill="#371269"/>
<path d="M404.25 158.721C403.899 157.596 402.457 157.875 402.17 158.459C402.114 158.675 402.073 158.896 402.047 159.118C402.047 160.876 404.757 160.344 404.25 158.721Z" fill="#371269"/>
<path d="M306.115 163.708C306.059 163.926 306.018 164.148 305.992 164.372C305.992 166.126 308.702 165.593 308.194 163.974C307.844 162.85 306.402 163.121 306.115 163.708Z" fill="#371269"/>
<path d="M353.466 180.272C353.115 179.144 351.674 179.427 351.383 180.006C351.33 180.225 351.291 180.446 351.264 180.67C351.264 182.424 353.995 181.891 353.466 180.272Z" fill="#371269"/>
<path d="M407.09 136.547C406.739 135.423 405.298 135.702 405.006 136.285C404.954 136.503 404.915 136.723 404.888 136.945C404.888 138.703 407.597 138.183 407.09 136.547Z" fill="#371269"/>
<path d="M414.466 201.456C414.115 200.332 412.673 200.611 412.386 201.194C412.33 201.411 412.289 201.631 412.263 201.854C412.263 203.612 414.973 203.079 414.466 201.456Z" fill="#371269"/>
<path d="M341.441 189.609C341.091 188.481 339.649 188.764 339.358 189.343C339.306 189.56 339.266 189.78 339.239 190.002C339.239 191.76 341.944 191.228 341.441 189.609Z" fill="#371269"/>
<path d="M352.338 133.585V133.699C351.78 134.485 352.185 135.343 352.604 135.326C356.374 135.165 352.883 131.763 352.338 133.585Z" fill="#371269"/>
<path d="M514.481 154.071C518.26 153.911 514.769 150.508 514.223 152.33V152.444C513.657 153.23 514.063 154.088 514.481 154.071Z" fill="#371269"/>
<path d="M337.253 168.848V168.966C336.695 169.752 337.096 170.61 337.515 170.589C341.289 170.428 337.798 167.026 337.253 168.848Z" fill="#371269"/>
<path d="M478.897 159.87C482.671 159.71 479.18 156.307 478.635 158.129V158.243C478.072 159.029 478.478 159.887 478.897 159.87Z" fill="#371269"/>
<path d="M436.19 199.952V200.066C435.633 200.852 436.034 201.71 436.457 201.693C440.218 201.533 436.736 198.13 436.19 199.952Z" fill="#371269"/>
<path d="M345.613 151.201V151.315C345.055 152.102 345.457 152.96 345.879 152.943C349.65 152.778 346.158 149.375 345.613 151.201Z" fill="#371269"/>
<path d="M444.551 182.301V182.415C443.993 183.201 444.399 184.059 444.817 184.043C448.587 183.882 445.096 180.479 444.551 182.301Z" fill="#371269"/>
<path d="M327.679 118.69V118.804C327.121 119.59 327.527 120.448 327.946 120.431C331.712 120.271 328.212 116.868 327.679 118.69Z" fill="#371269"/>
<path d="M518.991 167.673C522.77 167.512 519.278 164.11 518.733 165.931V166.05C518.171 166.836 518.573 167.694 518.991 167.673Z" fill="#371269"/>
<path d="M359.029 98.275V98.3891C358.471 99.1753 358.876 100.033 359.295 100.016C363.061 99.8558 359.57 96.4533 359.029 98.275Z" fill="#371269"/>
<path d="M398.429 141.463V141.565C397.872 142.351 398.273 143.209 398.696 143.192C402.466 143.044 398.975 139.641 398.429 141.463Z" fill="#371269"/>
<path d="M363.424 189.842C367.199 189.681 363.707 186.278 363.162 188.1V188.214C362.6 189 363.006 189.858 363.424 189.842Z" fill="#371269"/>
<path d="M325.972 183.032V183.146C325.414 183.933 325.815 184.791 326.238 184.774C330.008 184.613 326.521 181.211 325.972 183.032Z" fill="#371269"/>
<path d="M299.432 181.929C303.207 181.764 299.716 178.366 299.17 180.188V180.302C298.625 181.088 299.01 181.946 299.432 181.929Z" fill="#371269"/>
<path d="M390.733 146.379V146.493C390.171 147.279 390.576 148.137 390.995 148.12C394.765 147.96 391.278 144.557 390.733 146.379Z" fill="#371269"/>
<path d="M398.108 211.305V211.419C397.55 212.205 397.952 213.063 398.375 213.046C402.145 212.868 398.654 209.466 398.108 211.305Z" fill="#371269"/>
<path d="M297.729 153.12V153.239C297.171 154.025 297.573 154.878 297.995 154.862C301.766 154.701 298.274 151.286 297.729 153.12Z" fill="#371269"/>
<path d="M389.291 119.311V119.43C388.729 120.216 389.135 121.074 389.553 121.053C393.328 120.892 389.837 117.473 389.291 119.311Z" fill="#371269"/>
<path d="M396.684 184.224V184.338C396.126 185.125 396.527 185.983 396.95 185.966C400.703 185.801 397.212 182.398 396.684 184.224Z" fill="#371269"/>
<path d="M285.992 171.151L286.102 171.189C286.714 171.933 287.648 171.768 287.741 171.358C288.578 167.66 284.377 170.133 285.992 171.151Z" fill="#371269"/>
<path d="M377.554 137.338L377.664 137.376C378.277 138.12 379.207 137.955 379.304 137.549C380.141 133.851 375.939 136.323 377.554 137.338Z" fill="#371269"/>
<path d="M459.205 182.69C459.818 183.438 460.752 183.273 460.845 182.863C461.69 179.178 457.463 181.65 459.095 182.656L459.205 182.69Z" fill="#371269"/>
<path d="M499.629 178.662L499.738 178.696C500.351 179.444 501.285 179.279 501.378 178.869C502.215 175.183 498.014 177.656 499.629 178.662Z" fill="#371269"/>
<path d="M342.807 118.901C341.703 119.129 342.333 122.147 344.231 120.592C344.848 120.093 344.848 118.479 342.807 118.901Z" fill="#371269"/>
<path d="M506.112 139.341C506.729 138.838 506.734 137.228 504.692 137.651C503.589 137.875 504.214 140.892 506.112 139.341Z" fill="#371269"/>
<path d="M452.328 118.491C451.225 118.719 451.85 121.741 453.748 120.182C454.365 119.683 454.369 118.068 452.328 118.491Z" fill="#371269"/>
<path d="M443.177 151.709C443.794 151.201 443.794 149.595 441.753 150.018C440.641 150.229 441.271 153.251 443.177 151.709Z" fill="#371269"/>
<path d="M310.299 134.751C309.196 134.984 309.822 138.001 311.719 136.442C312.336 135.947 312.341 134.333 310.299 134.751Z" fill="#371269"/>
<path d="M525.335 177.419C525.952 176.916 525.956 175.306 523.915 175.729C522.812 175.949 523.437 178.971 525.335 177.419Z" fill="#371269"/>
<path d="M444.023 102.083C442.919 102.311 443.545 105.333 445.443 103.774C446.06 103.275 446.064 101.661 444.023 102.083Z" fill="#371269"/>
<path d="M460.654 210.738C461.272 210.231 461.276 208.625 459.234 209.047C458.131 209.267 458.757 212.285 460.654 210.738Z" fill="#371269"/>
<path d="M410.657 167.554C411.274 167.047 411.279 165.441 409.237 165.864C408.134 166.079 408.759 169.105 410.657 167.554Z" fill="#371269"/>
<path d="M381.045 157.529C379.942 157.757 380.572 160.775 382.47 159.219C383.091 158.721 383.091 157.106 381.045 157.529Z" fill="#371269"/>
<path d="M327.722 154.164C326.618 154.392 327.244 157.415 329.142 155.855C329.759 155.356 329.763 153.742 327.722 154.164Z" fill="#371269"/>
<path d="M355.761 112.109C356.378 111.606 356.378 109.996 354.341 110.418C353.234 110.638 353.864 113.668 355.761 112.109Z" fill="#371269"/>
<path d="M470.528 145.14C471.145 144.637 471.145 143.027 469.108 143.45C468 143.678 468.63 146.692 470.528 145.14Z" fill="#371269"/>
<path d="M428.08 186.963C428.697 186.46 428.701 184.85 426.659 185.272C425.556 185.492 426.182 188.514 428.08 186.963Z" fill="#371269"/>
<path d="M361.383 168.193C360.28 168.421 360.909 171.443 362.807 169.883C363.424 169.397 363.424 167.77 361.383 168.193Z" fill="#371269"/>
<path d="M504.189 159.177C504.806 158.674 504.81 157.064 502.769 157.486C501.666 157.706 502.291 160.728 504.189 159.177Z" fill="#371269"/>
</svg>
