<svg width="21" height="23" viewBox="0 0 21 23" fill="none" xmlns="http://www.w3.org/2000/svg">
<path d="M12.1755 3.72225C12.1766 2.49445 9.67307 1.5 6.58832 1.5C3.50357 1.5 1.00224 2.49557 1 3.72225M1 3.72225C1 4.95004 3.50133 5.94449 6.58832 5.94449C9.6753 5.94449 12.1766 4.95004 12.1766 3.72225L12.1766 12.3445M1 3.72225V17.0556C1.00112 18.2834 3.50245 19.2779 6.58832 19.2779C8.08487 19.2779 9.43612 19.0412 10.4387 18.6601M1.00112 8.16672C1.00112 9.39451 3.50245 10.389 6.58944 10.389C9.67643 10.389 12.1778 9.39451 12.1778 8.16672M10.5057 14.1946C9.4976 14.5891 8.11505 14.8335 6.58832 14.8335C3.50245 14.8335 1.00112 13.8391 1.00112 12.6113M18.5272 12.9646C20.4909 14.9169 20.4909 18.0836 18.5272 20.0358C16.5635 21.9881 13.3781 21.9881 11.4144 20.0358C9.45065 18.0836 9.45065 14.9169 11.4144 12.9646C13.3781 11.0124 16.5635 11.0124 18.5272 12.9646Z" stroke="white" stroke-width="2" stroke-linecap="round" stroke-linejoin="round"/>
</svg>
