<svg width="170" height="32" viewBox="0 0 170 32" fill="none" xmlns="http://www.w3.org/2000/svg">
<path d="M47.2881 22.6V19.352H49.8641V6.248H47.2881V3H55.3521C57.9841 3 59.9814 3.672 61.3441 5.016C62.7254 6.34133 63.4161 8.32 63.4161 10.952V14.648C63.4161 17.28 62.7254 19.268 61.3441 20.612C59.9814 21.9373 57.9841 22.6 55.3521 22.6H47.2881ZM53.5601 19.24H55.4081C56.9014 19.24 57.9934 18.848 58.6841 18.064C59.3748 17.28 59.7201 16.1787 59.7201 14.76V10.84C59.7201 9.40267 59.3748 8.30133 58.6841 7.536C57.9934 6.752 56.9014 6.36 55.4081 6.36H53.5601V19.24Z" fill="white"/>
<path d="M66.6085 22.6V8.712H70.0805V10.28H70.5845C70.7899 9.72 71.1259 9.30933 71.5925 9.048C72.0779 8.78667 72.6379 8.656 73.2725 8.656H74.9525V11.792H73.2165C72.3205 11.792 71.5832 12.0347 71.0045 12.52C70.4259 12.9867 70.1365 13.7147 70.1365 14.704V22.6H66.6085Z" fill="white"/>
<path d="M83.8259 22.992C82.4446 22.992 81.2032 22.712 80.1019 22.152C79.0006 21.592 78.1326 20.78 77.4979 19.716C76.8632 18.652 76.5459 17.3733 76.5459 15.88V15.432C76.5459 13.9387 76.8632 12.66 77.4979 11.596C78.1326 10.532 79.0006 9.72 80.1019 9.16C81.2032 8.6 82.4446 8.32 83.8259 8.32C85.2072 8.32 86.4486 8.6 87.5499 9.16C88.6512 9.72 89.5192 10.532 90.1539 11.596C90.7886 12.66 91.1059 13.9387 91.1059 15.432V15.88C91.1059 17.3733 90.7886 18.652 90.1539 19.716C89.5192 20.78 88.6512 21.592 87.5499 22.152C86.4486 22.712 85.2072 22.992 83.8259 22.992ZM83.8259 19.856C84.9086 19.856 85.8046 19.5107 86.5139 18.82C87.2232 18.1107 87.5779 17.1027 87.5779 15.796V15.516C87.5779 14.2093 87.2232 13.2107 86.5139 12.52C85.8232 11.8107 84.9272 11.456 83.8259 11.456C82.7432 11.456 81.8472 11.8107 81.1379 12.52C80.4286 13.2107 80.0739 14.2093 80.0739 15.516V15.796C80.0739 17.1027 80.4286 18.1107 81.1379 18.82C81.8472 19.5107 82.7432 19.856 83.8259 19.856Z" fill="white"/>
<path d="M94.3624 28.2V8.712H97.8344V10.392H98.3384C98.6558 9.85067 99.1504 9.37467 99.8224 8.964C100.494 8.53467 101.456 8.32 102.706 8.32C103.826 8.32 104.862 8.6 105.814 9.16C106.766 9.70133 107.532 10.504 108.11 11.568C108.689 12.632 108.978 13.92 108.978 15.432V15.88C108.978 17.392 108.689 18.68 108.11 19.744C107.532 20.808 106.766 21.62 105.814 22.18C104.862 22.7213 103.826 22.992 102.706 22.992C101.866 22.992 101.157 22.8893 100.578 22.684C100.018 22.4973 99.5611 22.2547 99.2064 21.956C98.8704 21.6387 98.5998 21.3213 98.3944 21.004H97.8904V28.2H94.3624ZM101.642 19.912C102.744 19.912 103.649 19.5667 104.358 18.876C105.086 18.1667 105.45 17.14 105.45 15.796V15.516C105.45 14.172 105.086 13.1547 104.358 12.464C103.63 11.7547 102.725 11.4 101.642 11.4C100.56 11.4 99.6544 11.7547 98.9264 12.464C98.1984 13.1547 97.8344 14.172 97.8344 15.516V15.796C97.8344 17.14 98.1984 18.1667 98.9264 18.876C99.6544 19.5667 100.56 19.912 101.642 19.912Z" fill="white"/>
<path d="M118.742 22.992C117.398 22.992 116.175 22.712 115.074 22.152C113.991 21.592 113.133 20.78 112.498 19.716C111.863 18.652 111.546 17.364 111.546 15.852V15.46C111.546 13.948 111.863 12.66 112.498 11.596C113.133 10.532 113.991 9.72 115.074 9.16C116.175 8.6 117.398 8.32 118.742 8.32C120.067 8.32 121.206 8.55333 122.158 9.02C123.11 9.48667 123.875 10.1307 124.454 10.952C125.051 11.7547 125.443 12.6693 125.63 13.696L122.214 14.424C122.139 13.864 121.971 13.36 121.71 12.912C121.449 12.464 121.075 12.1093 120.59 11.848C120.123 11.5867 119.535 11.456 118.826 11.456C118.117 11.456 117.473 11.6147 116.894 11.932C116.334 12.2307 115.886 12.688 115.55 13.304C115.233 13.9013 115.074 14.6387 115.074 15.516V15.796C115.074 16.6733 115.233 17.42 115.55 18.036C115.886 18.6333 116.334 19.0907 116.894 19.408C117.473 19.7067 118.117 19.856 118.826 19.856C119.89 19.856 120.693 19.5853 121.234 19.044C121.794 18.484 122.149 17.756 122.298 16.86L125.714 17.672C125.471 18.6613 125.051 19.5667 124.454 20.388C123.875 21.1907 123.11 21.8253 122.158 22.292C121.206 22.7587 120.067 22.992 118.742 22.992Z" fill="white"/>
<path d="M132.936 22.992C131.947 22.992 131.06 22.824 130.276 22.488C129.492 22.1333 128.867 21.6293 128.4 20.976C127.952 20.304 127.728 19.492 127.728 18.54C127.728 17.588 127.952 16.7947 128.4 16.16C128.867 15.5067 129.501 15.0213 130.304 14.704C131.125 14.368 132.059 14.2 133.104 14.2H136.912V13.416C136.912 12.7627 136.707 12.2307 136.296 11.82C135.885 11.3907 135.232 11.176 134.336 11.176C133.459 11.176 132.805 11.3813 132.376 11.792C131.947 12.184 131.667 12.6973 131.536 13.332L128.288 12.24C128.512 11.5307 128.867 10.8867 129.352 10.308C129.856 9.71067 130.519 9.23467 131.34 8.88C132.18 8.50667 133.197 8.32 134.392 8.32C136.221 8.32 137.668 8.77733 138.732 9.692C139.796 10.6067 140.328 11.932 140.328 13.668V18.848C140.328 19.408 140.589 19.688 141.112 19.688H142.232V22.6H139.88C139.189 22.6 138.62 22.432 138.172 22.096C137.724 21.76 137.5 21.312 137.5 20.752V20.724H136.968C136.893 20.948 136.725 21.2467 136.464 21.62C136.203 21.9747 135.792 22.292 135.232 22.572C134.672 22.852 133.907 22.992 132.936 22.992ZM133.552 20.136C134.541 20.136 135.344 19.8653 135.96 19.324C136.595 18.764 136.912 18.0267 136.912 17.112V16.832H133.356C132.703 16.832 132.189 16.972 131.816 17.252C131.443 17.532 131.256 17.924 131.256 18.428C131.256 18.932 131.452 19.3427 131.844 19.66C132.236 19.9773 132.805 20.136 133.552 20.136Z" fill="white"/>
<path d="M144.812 22.6V8.712H148.284V10.28H148.788C148.993 9.72 149.329 9.30933 149.796 9.048C150.281 8.78667 150.841 8.656 151.476 8.656H153.156V11.792H151.42C150.524 11.792 149.786 12.0347 149.208 12.52C148.629 12.9867 148.34 13.7147 148.34 14.704V22.6H144.812Z" fill="white"/>
<path d="M161.021 22.992C159.92 22.992 158.884 22.7213 157.913 22.18C156.961 21.62 156.196 20.808 155.617 19.744C155.038 18.68 154.749 17.392 154.749 15.88V15.432C154.749 13.92 155.038 12.632 155.617 11.568C156.196 10.504 156.961 9.70133 157.913 9.16C158.865 8.6 159.901 8.32 161.021 8.32C161.861 8.32 162.561 8.42267 163.121 8.628C163.7 8.81467 164.166 9.05733 164.521 9.356C164.876 9.65467 165.146 9.972 165.333 10.308H165.837V3H169.365V22.6H165.893V20.92H165.389C165.072 21.4427 164.577 21.9187 163.905 22.348C163.252 22.7773 162.29 22.992 161.021 22.992ZM162.085 19.912C163.168 19.912 164.073 19.5667 164.801 18.876C165.529 18.1667 165.893 17.14 165.893 15.796V15.516C165.893 14.172 165.529 13.1547 164.801 12.464C164.092 11.7547 163.186 11.4 162.085 11.4C161.002 11.4 160.097 11.7547 159.369 12.464C158.641 13.1547 158.277 14.172 158.277 15.516V15.796C158.277 17.14 158.641 18.1667 159.369 18.876C160.097 19.5667 161.002 19.912 162.085 19.912Z" fill="white"/>
<path d="M9.59414 8.31472C15.4864 6.8986 17.9648 3.553 18.9461 1.56411C19.2812 0.88495 20.2402 0.592465 20.8194 1.08032L23.4171 3.26811C23.7542 3.55201 23.8651 4.01904 23.662 4.41013C22.6661 6.32704 19.3369 11.8351 13.2718 13.4315C8.57042 14.6689 6.87403 16.7289 6.26195 18.0624C5.98291 18.6703 5.27113 19.1608 4.62864 18.9748L0.824548 17.8733C0.350243 17.7359 0.0530931 17.276 0.185188 16.8002C0.730667 14.8354 2.75122 9.95932 9.59414 8.31472Z" fill="white"/>
<path d="M15.6706 14.3909C21.5628 12.9748 24.0412 9.62918 25.0226 7.64028C25.3577 6.96112 26.3166 6.66864 26.8958 7.15649L29.4935 9.34428C29.8306 9.62818 29.9416 10.0952 29.7384 10.4863C28.7425 12.4032 25.4133 17.9112 19.3482 19.5076C14.6468 20.7451 12.9504 22.8051 12.3384 24.1386C12.0593 24.7465 11.3475 25.237 10.7051 25.051L6.90096 23.9494C6.42666 23.8121 6.12951 23.3521 6.2616 22.8763C6.80708 20.9116 8.82764 16.0355 15.6706 14.3909Z" fill="white"/>
<path d="M23.0259 20.467C28.9181 19.0509 31.3966 15.7053 32.3779 13.7164C32.713 13.0372 33.6719 12.7447 34.2512 13.2326L36.8489 15.4204C37.186 15.7043 37.2969 16.1713 37.0937 16.5624C36.0978 18.4793 32.7687 23.9873 26.7036 25.5838C22.0022 26.8212 20.3058 28.8812 19.6937 30.2147C19.4147 30.8226 18.7029 31.3131 18.0604 31.1271L14.2563 30.0256C13.782 29.8882 13.4849 29.4282 13.617 28.9524C14.1624 26.9877 16.183 22.1116 23.0259 20.467Z" fill="white"/>
</svg>
