<svg width="170" height="32" viewBox="0 0 170 32" fill="none" xmlns="http://www.w3.org/2000/svg">
<path d="M47.2881 22.85V19.602H49.8641V6.498H47.2881V3.25H55.3521C57.9841 3.25 59.9814 3.922 61.3441 5.266C62.7254 6.59133 63.4161 8.57 63.4161 11.202V14.898C63.4161 17.53 62.7254 19.518 61.3441 20.862C59.9814 22.1873 57.9841 22.85 55.3521 22.85H47.2881ZM53.5601 19.49H55.4081C56.9014 19.49 57.9934 19.098 58.6841 18.314C59.3748 17.53 59.7201 16.4287 59.7201 15.01V11.09C59.7201 9.65267 59.3748 8.55133 58.6841 7.786C57.9934 7.002 56.9014 6.61 55.4081 6.61H53.5601V19.49Z" fill="#6E24D1"/>
<path d="M66.6085 22.85V8.962H70.0805V10.53H70.5845C70.7899 9.97 71.1259 9.55933 71.5925 9.298C72.0779 9.03667 72.6379 8.906 73.2725 8.906H74.9525V12.042H73.2165C72.3205 12.042 71.5832 12.2847 71.0045 12.77C70.4259 13.2367 70.1365 13.9647 70.1365 14.954V22.85H66.6085Z" fill="#6E24D1"/>
<path d="M83.8259 23.242C82.4446 23.242 81.2032 22.962 80.1019 22.402C79.0006 21.842 78.1326 21.03 77.4979 19.966C76.8632 18.902 76.5459 17.6233 76.5459 16.13V15.682C76.5459 14.1887 76.8632 12.91 77.4979 11.846C78.1326 10.782 79.0006 9.97 80.1019 9.41C81.2032 8.85 82.4446 8.57 83.8259 8.57C85.2072 8.57 86.4486 8.85 87.5499 9.41C88.6512 9.97 89.5192 10.782 90.1539 11.846C90.7886 12.91 91.1059 14.1887 91.1059 15.682V16.13C91.1059 17.6233 90.7886 18.902 90.1539 19.966C89.5192 21.03 88.6512 21.842 87.5499 22.402C86.4486 22.962 85.2072 23.242 83.8259 23.242ZM83.8259 20.106C84.9086 20.106 85.8046 19.7607 86.5139 19.07C87.2232 18.3607 87.5779 17.3527 87.5779 16.046V15.766C87.5779 14.4593 87.2232 13.4607 86.5139 12.77C85.8232 12.0607 84.9272 11.706 83.8259 11.706C82.7432 11.706 81.8472 12.0607 81.1379 12.77C80.4286 13.4607 80.0739 14.4593 80.0739 15.766V16.046C80.0739 17.3527 80.4286 18.3607 81.1379 19.07C81.8472 19.7607 82.7432 20.106 83.8259 20.106Z" fill="#6E24D1"/>
<path d="M94.3624 28.45V8.962H97.8344V10.642H98.3384C98.6558 10.1007 99.1504 9.62467 99.8224 9.214C100.494 8.78467 101.456 8.57 102.706 8.57C103.826 8.57 104.862 8.85 105.814 9.41C106.766 9.95133 107.532 10.754 108.11 11.818C108.689 12.882 108.978 14.17 108.978 15.682V16.13C108.978 17.642 108.689 18.93 108.11 19.994C107.532 21.058 106.766 21.87 105.814 22.43C104.862 22.9713 103.826 23.242 102.706 23.242C101.866 23.242 101.157 23.1393 100.578 22.934C100.018 22.7473 99.5611 22.5047 99.2064 22.206C98.8704 21.8887 98.5998 21.5713 98.3944 21.254H97.8904V28.45H94.3624ZM101.642 20.162C102.744 20.162 103.649 19.8167 104.358 19.126C105.086 18.4167 105.45 17.39 105.45 16.046V15.766C105.45 14.422 105.086 13.4047 104.358 12.714C103.63 12.0047 102.725 11.65 101.642 11.65C100.56 11.65 99.6544 12.0047 98.9264 12.714C98.1984 13.4047 97.8344 14.422 97.8344 15.766V16.046C97.8344 17.39 98.1984 18.4167 98.9264 19.126C99.6544 19.8167 100.56 20.162 101.642 20.162Z" fill="#6E24D1"/>
<path d="M118.742 23.242C117.398 23.242 116.175 22.962 115.074 22.402C113.991 21.842 113.133 21.03 112.498 19.966C111.863 18.902 111.546 17.614 111.546 16.102V15.71C111.546 14.198 111.863 12.91 112.498 11.846C113.133 10.782 113.991 9.97 115.074 9.41C116.175 8.85 117.398 8.57 118.742 8.57C120.067 8.57 121.206 8.80333 122.158 9.27C123.11 9.73667 123.875 10.3807 124.454 11.202C125.051 12.0047 125.443 12.9193 125.63 13.946L122.214 14.674C122.139 14.114 121.971 13.61 121.71 13.162C121.449 12.714 121.075 12.3593 120.59 12.098C120.123 11.8367 119.535 11.706 118.826 11.706C118.117 11.706 117.473 11.8647 116.894 12.182C116.334 12.4807 115.886 12.938 115.55 13.554C115.233 14.1513 115.074 14.8887 115.074 15.766V16.046C115.074 16.9233 115.233 17.67 115.55 18.286C115.886 18.8833 116.334 19.3407 116.894 19.658C117.473 19.9567 118.117 20.106 118.826 20.106C119.89 20.106 120.693 19.8353 121.234 19.294C121.794 18.734 122.149 18.006 122.298 17.11L125.714 17.922C125.471 18.9113 125.051 19.8167 124.454 20.638C123.875 21.4407 123.11 22.0753 122.158 22.542C121.206 23.0087 120.067 23.242 118.742 23.242Z" fill="#6E24D1"/>
<path d="M132.936 23.242C131.947 23.242 131.06 23.074 130.276 22.738C129.492 22.3833 128.867 21.8793 128.4 21.226C127.952 20.554 127.728 19.742 127.728 18.79C127.728 17.838 127.952 17.0447 128.4 16.41C128.867 15.7567 129.501 15.2713 130.304 14.954C131.125 14.618 132.059 14.45 133.104 14.45H136.912V13.666C136.912 13.0127 136.707 12.4807 136.296 12.07C135.885 11.6407 135.232 11.426 134.336 11.426C133.459 11.426 132.805 11.6313 132.376 12.042C131.947 12.434 131.667 12.9473 131.536 13.582L128.288 12.49C128.512 11.7807 128.867 11.1367 129.352 10.558C129.856 9.96067 130.519 9.48467 131.34 9.13C132.18 8.75667 133.197 8.57 134.392 8.57C136.221 8.57 137.668 9.02733 138.732 9.942C139.796 10.8567 140.328 12.182 140.328 13.918V19.098C140.328 19.658 140.589 19.938 141.112 19.938H142.232V22.85H139.88C139.189 22.85 138.62 22.682 138.172 22.346C137.724 22.01 137.5 21.562 137.5 21.002V20.974H136.968C136.893 21.198 136.725 21.4967 136.464 21.87C136.203 22.2247 135.792 22.542 135.232 22.822C134.672 23.102 133.907 23.242 132.936 23.242ZM133.552 20.386C134.541 20.386 135.344 20.1153 135.96 19.574C136.595 19.014 136.912 18.2767 136.912 17.362V17.082H133.356C132.703 17.082 132.189 17.222 131.816 17.502C131.443 17.782 131.256 18.174 131.256 18.678C131.256 19.182 131.452 19.5927 131.844 19.91C132.236 20.2273 132.805 20.386 133.552 20.386Z" fill="#6E24D1"/>
<path d="M144.812 22.85V8.962H148.284V10.53H148.788C148.993 9.97 149.329 9.55933 149.796 9.298C150.281 9.03667 150.841 8.906 151.476 8.906H153.156V12.042H151.42C150.524 12.042 149.786 12.2847 149.208 12.77C148.629 13.2367 148.34 13.9647 148.34 14.954V22.85H144.812Z" fill="#6E24D1"/>
<path d="M161.021 23.242C159.92 23.242 158.884 22.9713 157.913 22.43C156.961 21.87 156.196 21.058 155.617 19.994C155.038 18.93 154.749 17.642 154.749 16.13V15.682C154.749 14.17 155.038 12.882 155.617 11.818C156.196 10.754 156.961 9.95133 157.913 9.41C158.865 8.85 159.901 8.57 161.021 8.57C161.861 8.57 162.561 8.67267 163.121 8.878C163.7 9.06467 164.166 9.30733 164.521 9.606C164.876 9.90467 165.146 10.222 165.333 10.558H165.837V3.25H169.365V22.85H165.893V21.17H165.389C165.072 21.6927 164.577 22.1687 163.905 22.598C163.252 23.0273 162.29 23.242 161.021 23.242ZM162.085 20.162C163.168 20.162 164.073 19.8167 164.801 19.126C165.529 18.4167 165.893 17.39 165.893 16.046V15.766C165.893 14.422 165.529 13.4047 164.801 12.714C164.092 12.0047 163.186 11.65 162.085 11.65C161.002 11.65 160.097 12.0047 159.369 12.714C158.641 13.4047 158.277 14.422 158.277 15.766V16.046C158.277 17.39 158.641 18.4167 159.369 19.126C160.097 19.8167 161.002 20.162 162.085 20.162Z" fill="#6E24D1"/>
<path d="M9.59414 8.56472C15.4864 7.1486 17.9648 3.803 18.9461 1.81411C19.2812 1.13495 20.2402 0.842465 20.8194 1.33032L23.4171 3.51811C23.7542 3.80201 23.8651 4.26904 23.662 4.66013C22.6661 6.57704 19.3369 12.0851 13.2718 13.6815C8.57042 14.9189 6.87403 16.9789 6.26195 18.3124C5.98291 18.9203 5.27113 19.4108 4.62864 19.2248L0.824548 18.1233C0.350243 17.9859 0.0530931 17.526 0.185188 17.0502C0.730667 15.0854 2.75122 10.2093 9.59414 8.56472Z" fill="#6E24D1"/>
<path d="M15.6706 14.6409C21.5628 13.2247 24.0412 9.87915 25.0226 7.89025C25.3577 7.21109 26.3166 6.91861 26.8958 7.40646L29.4935 9.59425C29.8306 9.87815 29.9416 10.3452 29.7384 10.7363C28.7425 12.6532 25.4133 18.1612 19.3482 19.7576C14.6468 20.9951 12.9504 23.055 12.3384 24.3885C12.0593 24.9964 11.3475 25.487 10.7051 25.3009L6.90096 24.1994C6.42666 24.0621 6.12951 23.6021 6.2616 23.1263C6.80708 21.1615 8.82764 16.2855 15.6706 14.6409Z" fill="#6E24D1"/>
<path d="M23.0259 20.717C28.9181 19.3009 31.3966 15.9553 32.3779 13.9664C32.713 13.2872 33.6719 12.9947 34.2512 13.4826L36.8489 15.6704C37.186 15.9543 37.2969 16.4213 37.0937 16.8124C36.0978 18.7293 32.7687 24.2373 26.7036 25.8338C22.0022 27.0712 20.3058 29.1312 19.6937 30.4647C19.4147 31.0726 18.7029 31.5631 18.0604 31.3771L14.2563 30.2756C13.782 30.1382 13.4849 29.6782 13.617 29.2024C14.1624 27.2377 16.183 22.3616 23.0259 20.717Z" fill="#6E24D1"/>
</svg>
